G04 #@! TF.GenerationSoftware,KiCad,Pcbnew,9.0.1*
G04 #@! TF.CreationDate,2025-06-03T01:03:25-04:00*
G04 #@! TF.ProjectId,nerdqaxe++,6e657264-7161-4786-952b-2b2e6b696361,rev?*
G04 #@! TF.SameCoordinates,Original*
G04 #@! TF.FileFunction,Soldermask,Top*
G04 #@! TF.FilePolarity,Negative*
%FSLAX46Y46*%
G04 Gerber Fmt 4.6, Leading zero omitted, Abs format (unit mm)*
G04 Created by KiCad (PCBNEW 9.0.1) date 2025-06-03 01:03:25*
%MOMM*%
%LPD*%
G01*
G04 APERTURE LIST*
G04 Aperture macros list*
%AMRoundRect*
0 Rectangle with rounded corners*
0 $1 Rounding radius*
0 $2 $3 $4 $5 $6 $7 $8 $9 X,Y pos of 4 corners*
0 Add a 4 corners polygon primitive as box body*
4,1,4,$2,$3,$4,$5,$6,$7,$8,$9,$2,$3,0*
0 Add four circle primitives for the rounded corners*
1,1,$1+$1,$2,$3*
1,1,$1+$1,$4,$5*
1,1,$1+$1,$6,$7*
1,1,$1+$1,$8,$9*
0 Add four rect primitives between the rounded corners*
20,1,$1+$1,$2,$3,$4,$5,0*
20,1,$1+$1,$4,$5,$6,$7,0*
20,1,$1+$1,$6,$7,$8,$9,0*
20,1,$1+$1,$8,$9,$2,$3,0*%
G04 Aperture macros list end*
%ADD10C,0.120000*%
%ADD11RoundRect,0.225000X0.250000X-0.225000X0.250000X0.225000X-0.250000X0.225000X-0.250000X-0.225000X0*%
%ADD12RoundRect,0.225000X-0.250000X0.225000X-0.250000X-0.225000X0.250000X-0.225000X0.250000X0.225000X0*%
%ADD13RoundRect,0.135000X-0.185000X0.135000X-0.185000X-0.135000X0.185000X-0.135000X0.185000X0.135000X0*%
%ADD14RoundRect,0.140000X-0.140000X-0.170000X0.140000X-0.170000X0.140000X0.170000X-0.140000X0.170000X0*%
%ADD15RoundRect,0.140000X0.140000X0.170000X-0.140000X0.170000X-0.140000X-0.170000X0.140000X-0.170000X0*%
%ADD16RoundRect,0.055250X-0.055250X0.340750X-0.055250X-0.340750X0.055250X-0.340750X0.055250X0.340750X0*%
%ADD17RoundRect,0.250000X-0.650000X0.325000X-0.650000X-0.325000X0.650000X-0.325000X0.650000X0.325000X0*%
%ADD18R,3.300000X2.800000*%
%ADD19RoundRect,0.250000X-0.450000X0.262500X-0.450000X-0.262500X0.450000X-0.262500X0.450000X0.262500X0*%
%ADD20RoundRect,0.050000X-0.100000X0.285000X-0.100000X-0.285000X0.100000X-0.285000X0.100000X0.285000X0*%
%ADD21RoundRect,0.250000X0.650000X-0.325000X0.650000X0.325000X-0.650000X0.325000X-0.650000X-0.325000X0*%
%ADD22RoundRect,0.135000X0.185000X-0.135000X0.185000X0.135000X-0.185000X0.135000X-0.185000X-0.135000X0*%
%ADD23RoundRect,0.250000X1.500000X1.000000X-1.500000X1.000000X-1.500000X-1.000000X1.500000X-1.000000X0*%
%ADD24C,0.800000*%
%ADD25C,6.400000*%
%ADD26RoundRect,0.062500X0.062500X-0.375000X0.062500X0.375000X-0.062500X0.375000X-0.062500X-0.375000X0*%
%ADD27RoundRect,0.062500X0.375000X-0.062500X0.375000X0.062500X-0.375000X0.062500X-0.375000X-0.062500X0*%
%ADD28R,4.150000X4.150000*%
%ADD29C,4.000000*%
%ADD30C,5.000000*%
%ADD31R,0.533400X0.558800*%
%ADD32R,0.533400X0.279400*%
%ADD33R,0.939800X2.844800*%
%ADD34RoundRect,0.140000X0.170000X-0.140000X0.170000X0.140000X-0.170000X0.140000X-0.170000X-0.140000X0*%
%ADD35C,1.700000*%
%ADD36RoundRect,0.250000X0.450000X-0.262500X0.450000X0.262500X-0.450000X0.262500X-0.450000X-0.262500X0*%
%ADD37RoundRect,0.225000X0.225000X0.250000X-0.225000X0.250000X-0.225000X-0.250000X0.225000X-0.250000X0*%
%ADD38RoundRect,0.250000X0.900000X-1.000000X0.900000X1.000000X-0.900000X1.000000X-0.900000X-1.000000X0*%
%ADD39C,3.000000*%
%ADD40C,2.000000*%
%ADD41RoundRect,0.140000X-0.170000X0.140000X-0.170000X-0.140000X0.170000X-0.140000X0.170000X0.140000X0*%
%ADD42RoundRect,0.100000X-0.100000X0.637500X-0.100000X-0.637500X0.100000X-0.637500X0.100000X0.637500X0*%
%ADD43RoundRect,0.127000X0.373000X0.023000X-0.373000X0.023000X-0.373000X-0.023000X0.373000X-0.023000X0*%
%ADD44R,0.500000X0.300000*%
%ADD45RoundRect,0.127000X0.078000X1.273000X-0.078000X1.273000X-0.078000X-1.273000X0.078000X-1.273000X0*%
%ADD46RoundRect,0.127000X-0.373000X-0.023000X0.373000X-0.023000X0.373000X0.023000X-0.373000X0.023000X0*%
%ADD47R,0.410000X6.300000*%
%ADD48R,3.400000X5.639000*%
%ADD49C,1.500000*%
%ADD50RoundRect,0.150000X-0.150000X0.512500X-0.150000X-0.512500X0.150000X-0.512500X0.150000X0.512500X0*%
%ADD51R,1.000000X1.000000*%
%ADD52O,1.000000X1.000000*%
%ADD53C,1.100000*%
%ADD54R,2.030000X1.730000*%
%ADD55O,2.030000X1.730000*%
%ADD56RoundRect,0.225000X-0.225000X-0.250000X0.225000X-0.250000X0.225000X0.250000X-0.225000X0.250000X0*%
%ADD57RoundRect,0.135000X-0.135000X-0.185000X0.135000X-0.185000X0.135000X0.185000X-0.135000X0.185000X0*%
%ADD58RoundRect,0.135000X0.135000X0.185000X-0.135000X0.185000X-0.135000X-0.185000X0.135000X-0.185000X0*%
%ADD59RoundRect,0.055250X0.055250X-0.340750X0.055250X0.340750X-0.055250X0.340750X-0.055250X-0.340750X0*%
%ADD60R,0.300000X0.800000*%
%ADD61RoundRect,0.087500X0.725000X0.087500X-0.725000X0.087500X-0.725000X-0.087500X0.725000X-0.087500X0*%
%ADD62RoundRect,0.225000X0.225000X0.375000X-0.225000X0.375000X-0.225000X-0.375000X0.225000X-0.375000X0*%
G04 APERTURE END LIST*
D10*
X83180000Y-128680000D02*
X84620000Y-128680000D01*
X84620000Y-126900000D01*
X83180000Y-126900000D01*
X83180000Y-128680000D01*
G36*
X83180000Y-128680000D02*
G01*
X84620000Y-128680000D01*
X84620000Y-126900000D01*
X83180000Y-126900000D01*
X83180000Y-128680000D01*
G37*
X83190000Y-130890000D02*
X84630000Y-130890000D01*
X84630000Y-129110000D01*
X83190000Y-129110000D01*
X83190000Y-130890000D01*
G36*
X83190000Y-130890000D02*
G01*
X84630000Y-130890000D01*
X84630000Y-129110000D01*
X83190000Y-129110000D01*
X83190000Y-130890000D01*
G37*
X83190000Y-133100000D02*
X84630000Y-133100000D01*
X84630000Y-131320000D01*
X83190000Y-131320000D01*
X83190000Y-133100000D01*
G36*
X83190000Y-133100000D02*
G01*
X84630000Y-133100000D01*
X84630000Y-131320000D01*
X83190000Y-131320000D01*
X83190000Y-133100000D01*
G37*
X85050000Y-128670000D02*
X86490000Y-128670000D01*
X86490000Y-126890000D01*
X85050000Y-126890000D01*
X85050000Y-128670000D01*
G36*
X85050000Y-128670000D02*
G01*
X86490000Y-128670000D01*
X86490000Y-126890000D01*
X85050000Y-126890000D01*
X85050000Y-128670000D01*
G37*
X85060000Y-130880000D02*
X86500000Y-130880000D01*
X86500000Y-129100000D01*
X85060000Y-129100000D01*
X85060000Y-130880000D01*
G36*
X85060000Y-130880000D02*
G01*
X86500000Y-130880000D01*
X86500000Y-129100000D01*
X85060000Y-129100000D01*
X85060000Y-130880000D01*
G37*
X85060000Y-133090000D02*
X86500000Y-133090000D01*
X86500000Y-131310000D01*
X85060000Y-131310000D01*
X85060000Y-133090000D01*
G36*
X85060000Y-133090000D02*
G01*
X86500000Y-133090000D01*
X86500000Y-131310000D01*
X85060000Y-131310000D01*
X85060000Y-133090000D01*
G37*
X86890000Y-128680000D02*
X88330000Y-128680000D01*
X88330000Y-126900000D01*
X86890000Y-126900000D01*
X86890000Y-128680000D01*
G36*
X86890000Y-128680000D02*
G01*
X88330000Y-128680000D01*
X88330000Y-126900000D01*
X86890000Y-126900000D01*
X86890000Y-128680000D01*
G37*
X86900000Y-130890000D02*
X88340000Y-130890000D01*
X88340000Y-129110000D01*
X86900000Y-129110000D01*
X86900000Y-130890000D01*
G36*
X86900000Y-130890000D02*
G01*
X88340000Y-130890000D01*
X88340000Y-129110000D01*
X86900000Y-129110000D01*
X86900000Y-130890000D01*
G37*
X86900000Y-133100000D02*
X88340000Y-133100000D01*
X88340000Y-131320000D01*
X86900000Y-131320000D01*
X86900000Y-133100000D01*
G36*
X86900000Y-133100000D02*
G01*
X88340000Y-133100000D01*
X88340000Y-131320000D01*
X86900000Y-131320000D01*
X86900000Y-133100000D01*
G37*
X88920000Y-128680000D02*
X90800000Y-128680000D01*
X90800000Y-126900000D01*
X88920000Y-126900000D01*
X88920000Y-128680000D01*
G36*
X88920000Y-128680000D02*
G01*
X90800000Y-128680000D01*
X90800000Y-126900000D01*
X88920000Y-126900000D01*
X88920000Y-128680000D01*
G37*
X88940000Y-130880000D02*
X90810000Y-130880000D01*
X90810000Y-129100000D01*
X88940000Y-129100000D01*
X88940000Y-130880000D01*
G36*
X88940000Y-130880000D02*
G01*
X90810000Y-130880000D01*
X90810000Y-129100000D01*
X88940000Y-129100000D01*
X88940000Y-130880000D01*
G37*
X88950000Y-133090000D02*
X90820000Y-133090000D01*
X90820000Y-131310000D01*
X88950000Y-131310000D01*
X88950000Y-133090000D01*
G36*
X88950000Y-133090000D02*
G01*
X90820000Y-133090000D01*
X90820000Y-131310000D01*
X88950000Y-131310000D01*
X88950000Y-133090000D01*
G37*
X83180000Y-144680000D02*
X84620000Y-144680000D01*
X84620000Y-142900000D01*
X83180000Y-142900000D01*
X83180000Y-144680000D01*
G36*
X83180000Y-144680000D02*
G01*
X84620000Y-144680000D01*
X84620000Y-142900000D01*
X83180000Y-142900000D01*
X83180000Y-144680000D01*
G37*
X83190000Y-146890000D02*
X84630000Y-146890000D01*
X84630000Y-145110000D01*
X83190000Y-145110000D01*
X83190000Y-146890000D01*
G36*
X83190000Y-146890000D02*
G01*
X84630000Y-146890000D01*
X84630000Y-145110000D01*
X83190000Y-145110000D01*
X83190000Y-146890000D01*
G37*
X83190000Y-149100000D02*
X84630000Y-149100000D01*
X84630000Y-147320000D01*
X83190000Y-147320000D01*
X83190000Y-149100000D01*
G36*
X83190000Y-149100000D02*
G01*
X84630000Y-149100000D01*
X84630000Y-147320000D01*
X83190000Y-147320000D01*
X83190000Y-149100000D01*
G37*
X85050000Y-144670000D02*
X86490000Y-144670000D01*
X86490000Y-142890000D01*
X85050000Y-142890000D01*
X85050000Y-144670000D01*
G36*
X85050000Y-144670000D02*
G01*
X86490000Y-144670000D01*
X86490000Y-142890000D01*
X85050000Y-142890000D01*
X85050000Y-144670000D01*
G37*
X85060000Y-146880000D02*
X86500000Y-146880000D01*
X86500000Y-145100000D01*
X85060000Y-145100000D01*
X85060000Y-146880000D01*
G36*
X85060000Y-146880000D02*
G01*
X86500000Y-146880000D01*
X86500000Y-145100000D01*
X85060000Y-145100000D01*
X85060000Y-146880000D01*
G37*
X85060000Y-149090000D02*
X86500000Y-149090000D01*
X86500000Y-147310000D01*
X85060000Y-147310000D01*
X85060000Y-149090000D01*
G36*
X85060000Y-149090000D02*
G01*
X86500000Y-149090000D01*
X86500000Y-147310000D01*
X85060000Y-147310000D01*
X85060000Y-149090000D01*
G37*
X86890000Y-144680000D02*
X88330000Y-144680000D01*
X88330000Y-142900000D01*
X86890000Y-142900000D01*
X86890000Y-144680000D01*
G36*
X86890000Y-144680000D02*
G01*
X88330000Y-144680000D01*
X88330000Y-142900000D01*
X86890000Y-142900000D01*
X86890000Y-144680000D01*
G37*
X86900000Y-146890000D02*
X88340000Y-146890000D01*
X88340000Y-145110000D01*
X86900000Y-145110000D01*
X86900000Y-146890000D01*
G36*
X86900000Y-146890000D02*
G01*
X88340000Y-146890000D01*
X88340000Y-145110000D01*
X86900000Y-145110000D01*
X86900000Y-146890000D01*
G37*
X86900000Y-149100000D02*
X88340000Y-149100000D01*
X88340000Y-147320000D01*
X86900000Y-147320000D01*
X86900000Y-149100000D01*
G36*
X86900000Y-149100000D02*
G01*
X88340000Y-149100000D01*
X88340000Y-147320000D01*
X86900000Y-147320000D01*
X86900000Y-149100000D01*
G37*
X88920000Y-144680000D02*
X90800000Y-144680000D01*
X90800000Y-142900000D01*
X88920000Y-142900000D01*
X88920000Y-144680000D01*
G36*
X88920000Y-144680000D02*
G01*
X90800000Y-144680000D01*
X90800000Y-142900000D01*
X88920000Y-142900000D01*
X88920000Y-144680000D01*
G37*
X88940000Y-146880000D02*
X90810000Y-146880000D01*
X90810000Y-145100000D01*
X88940000Y-145100000D01*
X88940000Y-146880000D01*
G36*
X88940000Y-146880000D02*
G01*
X90810000Y-146880000D01*
X90810000Y-145100000D01*
X88940000Y-145100000D01*
X88940000Y-146880000D01*
G37*
X88950000Y-149090000D02*
X90820000Y-149090000D01*
X90820000Y-147310000D01*
X88950000Y-147310000D01*
X88950000Y-149090000D01*
G36*
X88950000Y-149090000D02*
G01*
X90820000Y-149090000D01*
X90820000Y-147310000D01*
X88950000Y-147310000D01*
X88950000Y-149090000D01*
G37*
X101050000Y-126910000D02*
X99180000Y-126910000D01*
X99180000Y-128690000D01*
X101050000Y-128690000D01*
X101050000Y-126910000D01*
G36*
X101050000Y-126910000D02*
G01*
X99180000Y-126910000D01*
X99180000Y-128690000D01*
X101050000Y-128690000D01*
X101050000Y-126910000D01*
G37*
X101060000Y-129120000D02*
X99190000Y-129120000D01*
X99190000Y-130900000D01*
X101060000Y-130900000D01*
X101060000Y-129120000D01*
G36*
X101060000Y-129120000D02*
G01*
X99190000Y-129120000D01*
X99190000Y-130900000D01*
X101060000Y-130900000D01*
X101060000Y-129120000D01*
G37*
X101080000Y-131320000D02*
X99200000Y-131320000D01*
X99200000Y-133100000D01*
X101080000Y-133100000D01*
X101080000Y-131320000D01*
G36*
X101080000Y-131320000D02*
G01*
X99200000Y-131320000D01*
X99200000Y-133100000D01*
X101080000Y-133100000D01*
X101080000Y-131320000D01*
G37*
X103100000Y-126900000D02*
X101660000Y-126900000D01*
X101660000Y-128680000D01*
X103100000Y-128680000D01*
X103100000Y-126900000D01*
G36*
X103100000Y-126900000D02*
G01*
X101660000Y-126900000D01*
X101660000Y-128680000D01*
X103100000Y-128680000D01*
X103100000Y-126900000D01*
G37*
X103100000Y-129110000D02*
X101660000Y-129110000D01*
X101660000Y-130890000D01*
X103100000Y-130890000D01*
X103100000Y-129110000D01*
G36*
X103100000Y-129110000D02*
G01*
X101660000Y-129110000D01*
X101660000Y-130890000D01*
X103100000Y-130890000D01*
X103100000Y-129110000D01*
G37*
X103110000Y-131320000D02*
X101670000Y-131320000D01*
X101670000Y-133100000D01*
X103110000Y-133100000D01*
X103110000Y-131320000D01*
G36*
X103110000Y-131320000D02*
G01*
X101670000Y-131320000D01*
X101670000Y-133100000D01*
X103110000Y-133100000D01*
X103110000Y-131320000D01*
G37*
X104940000Y-126910000D02*
X103500000Y-126910000D01*
X103500000Y-128690000D01*
X104940000Y-128690000D01*
X104940000Y-126910000D01*
G36*
X104940000Y-126910000D02*
G01*
X103500000Y-126910000D01*
X103500000Y-128690000D01*
X104940000Y-128690000D01*
X104940000Y-126910000D01*
G37*
X104940000Y-129120000D02*
X103500000Y-129120000D01*
X103500000Y-130900000D01*
X104940000Y-130900000D01*
X104940000Y-129120000D01*
G36*
X104940000Y-129120000D02*
G01*
X103500000Y-129120000D01*
X103500000Y-130900000D01*
X104940000Y-130900000D01*
X104940000Y-129120000D01*
G37*
X104950000Y-131330000D02*
X103510000Y-131330000D01*
X103510000Y-133110000D01*
X104950000Y-133110000D01*
X104950000Y-131330000D01*
G36*
X104950000Y-131330000D02*
G01*
X103510000Y-131330000D01*
X103510000Y-133110000D01*
X104950000Y-133110000D01*
X104950000Y-131330000D01*
G37*
X106810000Y-126900000D02*
X105370000Y-126900000D01*
X105370000Y-128680000D01*
X106810000Y-128680000D01*
X106810000Y-126900000D01*
G36*
X106810000Y-126900000D02*
G01*
X105370000Y-126900000D01*
X105370000Y-128680000D01*
X106810000Y-128680000D01*
X106810000Y-126900000D01*
G37*
X106810000Y-129110000D02*
X105370000Y-129110000D01*
X105370000Y-130890000D01*
X106810000Y-130890000D01*
X106810000Y-129110000D01*
G36*
X106810000Y-129110000D02*
G01*
X105370000Y-129110000D01*
X105370000Y-130890000D01*
X106810000Y-130890000D01*
X106810000Y-129110000D01*
G37*
X106820000Y-131320000D02*
X105380000Y-131320000D01*
X105380000Y-133100000D01*
X106820000Y-133100000D01*
X106820000Y-131320000D01*
G36*
X106820000Y-131320000D02*
G01*
X105380000Y-131320000D01*
X105380000Y-133100000D01*
X106820000Y-133100000D01*
X106820000Y-131320000D01*
G37*
X101050000Y-142910000D02*
X99180000Y-142910000D01*
X99180000Y-144690000D01*
X101050000Y-144690000D01*
X101050000Y-142910000D01*
G36*
X101050000Y-142910000D02*
G01*
X99180000Y-142910000D01*
X99180000Y-144690000D01*
X101050000Y-144690000D01*
X101050000Y-142910000D01*
G37*
X101060000Y-145120000D02*
X99190000Y-145120000D01*
X99190000Y-146900000D01*
X101060000Y-146900000D01*
X101060000Y-145120000D01*
G36*
X101060000Y-145120000D02*
G01*
X99190000Y-145120000D01*
X99190000Y-146900000D01*
X101060000Y-146900000D01*
X101060000Y-145120000D01*
G37*
X101080000Y-147320000D02*
X99200000Y-147320000D01*
X99200000Y-149100000D01*
X101080000Y-149100000D01*
X101080000Y-147320000D01*
G36*
X101080000Y-147320000D02*
G01*
X99200000Y-147320000D01*
X99200000Y-149100000D01*
X101080000Y-149100000D01*
X101080000Y-147320000D01*
G37*
X103100000Y-142900000D02*
X101660000Y-142900000D01*
X101660000Y-144680000D01*
X103100000Y-144680000D01*
X103100000Y-142900000D01*
G36*
X103100000Y-142900000D02*
G01*
X101660000Y-142900000D01*
X101660000Y-144680000D01*
X103100000Y-144680000D01*
X103100000Y-142900000D01*
G37*
X103100000Y-145110000D02*
X101660000Y-145110000D01*
X101660000Y-146890000D01*
X103100000Y-146890000D01*
X103100000Y-145110000D01*
G36*
X103100000Y-145110000D02*
G01*
X101660000Y-145110000D01*
X101660000Y-146890000D01*
X103100000Y-146890000D01*
X103100000Y-145110000D01*
G37*
X103110000Y-147320000D02*
X101670000Y-147320000D01*
X101670000Y-149100000D01*
X103110000Y-149100000D01*
X103110000Y-147320000D01*
G36*
X103110000Y-147320000D02*
G01*
X101670000Y-147320000D01*
X101670000Y-149100000D01*
X103110000Y-149100000D01*
X103110000Y-147320000D01*
G37*
X104940000Y-142910000D02*
X103500000Y-142910000D01*
X103500000Y-144690000D01*
X104940000Y-144690000D01*
X104940000Y-142910000D01*
G36*
X104940000Y-142910000D02*
G01*
X103500000Y-142910000D01*
X103500000Y-144690000D01*
X104940000Y-144690000D01*
X104940000Y-142910000D01*
G37*
X104940000Y-145120000D02*
X103500000Y-145120000D01*
X103500000Y-146900000D01*
X104940000Y-146900000D01*
X104940000Y-145120000D01*
G36*
X104940000Y-145120000D02*
G01*
X103500000Y-145120000D01*
X103500000Y-146900000D01*
X104940000Y-146900000D01*
X104940000Y-145120000D01*
G37*
X104950000Y-147330000D02*
X103510000Y-147330000D01*
X103510000Y-149110000D01*
X104950000Y-149110000D01*
X104950000Y-147330000D01*
G36*
X104950000Y-147330000D02*
G01*
X103510000Y-147330000D01*
X103510000Y-149110000D01*
X104950000Y-149110000D01*
X104950000Y-147330000D01*
G37*
X106810000Y-142900000D02*
X105370000Y-142900000D01*
X105370000Y-144680000D01*
X106810000Y-144680000D01*
X106810000Y-142900000D01*
G36*
X106810000Y-142900000D02*
G01*
X105370000Y-142900000D01*
X105370000Y-144680000D01*
X106810000Y-144680000D01*
X106810000Y-142900000D01*
G37*
X106810000Y-145110000D02*
X105370000Y-145110000D01*
X105370000Y-146890000D01*
X106810000Y-146890000D01*
X106810000Y-145110000D01*
G36*
X106810000Y-145110000D02*
G01*
X105370000Y-145110000D01*
X105370000Y-146890000D01*
X106810000Y-146890000D01*
X106810000Y-145110000D01*
G37*
X106820000Y-147320000D02*
X105380000Y-147320000D01*
X105380000Y-149100000D01*
X106820000Y-149100000D01*
X106820000Y-147320000D01*
G36*
X106820000Y-147320000D02*
G01*
X105380000Y-147320000D01*
X105380000Y-149100000D01*
X106820000Y-149100000D01*
X106820000Y-147320000D01*
G37*
D11*
X72000000Y-73575000D03*
X72000000Y-72025000D03*
D12*
X73570000Y-68310000D03*
X73570000Y-69860000D03*
D13*
X81600000Y-29640000D03*
X81600000Y-30660000D03*
D14*
X96020000Y-38800000D03*
X96980000Y-38800000D03*
D15*
X133156315Y-59976089D03*
X132196315Y-59976089D03*
D16*
X90514000Y-126084000D03*
X90012000Y-126084000D03*
X89510000Y-126084000D03*
X89008000Y-126084000D03*
X88506000Y-126084000D03*
X88004000Y-126084000D03*
X87502000Y-126084000D03*
X87000000Y-126084000D03*
X86498000Y-126084000D03*
X85996000Y-126084000D03*
X85494000Y-126084000D03*
X84992000Y-126084000D03*
X84490000Y-126084000D03*
X83988000Y-126084000D03*
X83486000Y-126084000D03*
X83486000Y-133916000D03*
X83988000Y-133916000D03*
X84490000Y-133916000D03*
X84992000Y-133916000D03*
X85494000Y-133916000D03*
X85996000Y-133916000D03*
X86498000Y-133916000D03*
X87000000Y-133916000D03*
X87502000Y-133916000D03*
X88004000Y-133916000D03*
X88506000Y-133916000D03*
X89008000Y-133916000D03*
X89510000Y-133916000D03*
X90012000Y-133916000D03*
X90514000Y-133916000D03*
D13*
X79700000Y-29640000D03*
X79700000Y-30660000D03*
X91900000Y-31600000D03*
X91900000Y-32620000D03*
D17*
X108400000Y-77700000D03*
X108400000Y-80650000D03*
D18*
X90180000Y-55200000D03*
X97790000Y-55200000D03*
D12*
X74800000Y-57525000D03*
X74800000Y-59075000D03*
D19*
X84940000Y-63007500D03*
X84940000Y-64832500D03*
D20*
X109840000Y-137280000D03*
X109340000Y-137280000D03*
X108840000Y-137280000D03*
X108840000Y-138760000D03*
X109340000Y-138760000D03*
X109840000Y-138760000D03*
D12*
X75100000Y-77750000D03*
X75100000Y-79300000D03*
D17*
X103800000Y-56525000D03*
X103800000Y-59475000D03*
D21*
X108450000Y-64775000D03*
X108450000Y-61825000D03*
D22*
X89900000Y-32610000D03*
X89900000Y-31590000D03*
D15*
X137180000Y-53500000D03*
X136220000Y-53500000D03*
D21*
X110750000Y-54400000D03*
X110750000Y-51450000D03*
D23*
X62750000Y-69250000D03*
X56250000Y-69250000D03*
D22*
X93493750Y-44510000D03*
X93493750Y-43490000D03*
D24*
X133600000Y-78000000D03*
X134302944Y-76302944D03*
X134302944Y-79697056D03*
X136000000Y-75600000D03*
D25*
X136000000Y-78000000D03*
D24*
X136000000Y-80400000D03*
X137697056Y-76302944D03*
X137697056Y-79697056D03*
X138400000Y-78000000D03*
D11*
X76470000Y-73575000D03*
X76470000Y-72025000D03*
D26*
X87843750Y-41375000D03*
X88343750Y-41375000D03*
X88843750Y-41375000D03*
X89343750Y-41375000D03*
X89843750Y-41375000D03*
X90343750Y-41375000D03*
X90843750Y-41375000D03*
X91343750Y-41375000D03*
X91843750Y-41375000D03*
X92343750Y-41375000D03*
D27*
X93031250Y-40687500D03*
X93031250Y-40187500D03*
X93031250Y-39687500D03*
X93031250Y-39187500D03*
X93031250Y-38687500D03*
X93031250Y-38187500D03*
X93031250Y-37687500D03*
X93031250Y-37187500D03*
X93031250Y-36687500D03*
X93031250Y-36187500D03*
D26*
X92343750Y-35500000D03*
X91843750Y-35500000D03*
X91343750Y-35500000D03*
X90843750Y-35500000D03*
X90343750Y-35500000D03*
X89843750Y-35500000D03*
X89343750Y-35500000D03*
X88843750Y-35500000D03*
X88343750Y-35500000D03*
X87843750Y-35500000D03*
D27*
X87156250Y-36187500D03*
X87156250Y-36687500D03*
X87156250Y-37187500D03*
X87156250Y-37687500D03*
X87156250Y-38187500D03*
X87156250Y-38687500D03*
X87156250Y-39187500D03*
X87156250Y-39687500D03*
X87156250Y-40187500D03*
X87156250Y-40687500D03*
D28*
X90093750Y-38437500D03*
D29*
X132500000Y-100500000D03*
D17*
X106100000Y-56525000D03*
X106100000Y-59475000D03*
D30*
X67000000Y-91000000D03*
D21*
X101500000Y-85375000D03*
X101500000Y-82425000D03*
D12*
X73325000Y-57525000D03*
X73325000Y-59075000D03*
D14*
X80420000Y-36900000D03*
X81380000Y-36900000D03*
D31*
X57329500Y-46387501D03*
D32*
X57329500Y-45750126D03*
X57329500Y-45250000D03*
X57329500Y-44749874D03*
D31*
X57329500Y-44112499D03*
X55170500Y-44112499D03*
D32*
X55170500Y-44749874D03*
X55170500Y-45250000D03*
X55170500Y-45750126D03*
D31*
X55170500Y-46387501D03*
D33*
X56250000Y-45250000D03*
D21*
X108400000Y-85350000D03*
X108400000Y-82400000D03*
D17*
X103800000Y-77700000D03*
X103800000Y-80650000D03*
D34*
X87900000Y-32980000D03*
X87900000Y-32020000D03*
D12*
X72070000Y-77750000D03*
X72070000Y-79300000D03*
D11*
X76500000Y-52475000D03*
X76500000Y-50925000D03*
D21*
X113000000Y-85375000D03*
X113000000Y-82425000D03*
D14*
X83820000Y-30850000D03*
X84780000Y-30850000D03*
D22*
X88093750Y-44910000D03*
X88093750Y-43890000D03*
D21*
X89950000Y-85375000D03*
X89950000Y-82425000D03*
D17*
X113000000Y-67325000D03*
X113000000Y-70275000D03*
D15*
X82720000Y-62457500D03*
X81760000Y-62457500D03*
D35*
X88310000Y-25250000D03*
X90850000Y-25250000D03*
X93390000Y-25250000D03*
X95930000Y-25250000D03*
X98470000Y-25250000D03*
X101010000Y-25250000D03*
X103550000Y-25250000D03*
X106090000Y-25250000D03*
X108630000Y-25250000D03*
X111170000Y-25250000D03*
X113710000Y-25250000D03*
X116250000Y-25250000D03*
X116250000Y-48170000D03*
X113710000Y-48170000D03*
X111170000Y-48170000D03*
X108630000Y-48170000D03*
X106090000Y-48170000D03*
X103550000Y-48170000D03*
X101010000Y-48170000D03*
X98470000Y-48170000D03*
X95930000Y-48170000D03*
X93390000Y-48170000D03*
X90850000Y-48170000D03*
X88310000Y-48170000D03*
D21*
X106150000Y-64775000D03*
X106150000Y-61825000D03*
D11*
X73030000Y-63085000D03*
X73030000Y-61535000D03*
D36*
X86940000Y-69932500D03*
X86940000Y-68107500D03*
D19*
X97700000Y-31187500D03*
X97700000Y-33012500D03*
D37*
X57250000Y-49275000D03*
X55700000Y-49275000D03*
D21*
X96900000Y-85375000D03*
X96900000Y-82425000D03*
D24*
X52600000Y-28000000D03*
X53302944Y-26302944D03*
X53302944Y-29697056D03*
X55000000Y-25600000D03*
D25*
X55000000Y-28000000D03*
D24*
X55000000Y-30400000D03*
X56697056Y-26302944D03*
X56697056Y-29697056D03*
X57400000Y-28000000D03*
D17*
X103800000Y-67325000D03*
X103800000Y-70275000D03*
D38*
X69450000Y-48050000D03*
X69450000Y-43750000D03*
D21*
X103800000Y-85350000D03*
X103800000Y-82400000D03*
D39*
X62650000Y-37000000D03*
X67650000Y-37000000D03*
D40*
X59650000Y-27000000D03*
X70650000Y-27000000D03*
D21*
X106100000Y-85350000D03*
X106100000Y-82400000D03*
X113100000Y-54400000D03*
X113100000Y-51450000D03*
D41*
X78480000Y-81420000D03*
X78480000Y-82380000D03*
D21*
X99200000Y-85375000D03*
X99200000Y-82425000D03*
D42*
X127980000Y-54077500D03*
X127330000Y-54077500D03*
X126680000Y-54077500D03*
X126030000Y-54077500D03*
X125380000Y-54077500D03*
X124730000Y-54077500D03*
X124080000Y-54077500D03*
X124080000Y-59802500D03*
X124730000Y-59802500D03*
X125380000Y-59802500D03*
X126030000Y-59802500D03*
X126680000Y-59802500D03*
X127330000Y-59802500D03*
X127980000Y-59802500D03*
D15*
X81067500Y-43400000D03*
X80107500Y-43400000D03*
D18*
X90170000Y-65920000D03*
X97780000Y-65920000D03*
D30*
X123000000Y-185000000D03*
D41*
X129860000Y-54600000D03*
X129860000Y-55560000D03*
D34*
X76000000Y-58080000D03*
X76000000Y-57120000D03*
D22*
X58500000Y-44210000D03*
X58500000Y-43190000D03*
X138880000Y-55267500D03*
X138880000Y-54247500D03*
D21*
X113100000Y-64750000D03*
X113100000Y-61800000D03*
D14*
X96220000Y-44600000D03*
X97180000Y-44600000D03*
D15*
X57555000Y-42850000D03*
X56595000Y-42850000D03*
X82430000Y-60437500D03*
X81470000Y-60437500D03*
D12*
X71850000Y-57525000D03*
X71850000Y-59075000D03*
D43*
X83015000Y-69357500D03*
D44*
X83265000Y-69357500D03*
D43*
X83015000Y-68857500D03*
D44*
X83265000Y-68857500D03*
D43*
X83015000Y-68357500D03*
D44*
X83265000Y-68357500D03*
D43*
X83015000Y-67857500D03*
D44*
X83265000Y-67857500D03*
D43*
X83015000Y-67357500D03*
D44*
X83265000Y-67357500D03*
D45*
X82715000Y-65607500D03*
D43*
X83015000Y-64357500D03*
X83015000Y-64857500D03*
X83015000Y-65357500D03*
X83015000Y-65857500D03*
X83015000Y-66357500D03*
X83015000Y-66857500D03*
D44*
X83265000Y-64357500D03*
X83265000Y-64857500D03*
X83265000Y-65357500D03*
X83265000Y-65857500D03*
X83265000Y-66357500D03*
X83265000Y-66857500D03*
X77865000Y-64357500D03*
X77865000Y-64857500D03*
X77865000Y-65357500D03*
X77865000Y-65857500D03*
X77865000Y-66357500D03*
X77865000Y-66857500D03*
D46*
X78115000Y-64357500D03*
X78115000Y-64857500D03*
X78115000Y-65357500D03*
X78115000Y-65857500D03*
X78115000Y-66357500D03*
X78115000Y-66857500D03*
D45*
X78415000Y-65607500D03*
D44*
X77865000Y-67357500D03*
D46*
X78115000Y-67357500D03*
D44*
X77865000Y-67857500D03*
D46*
X78115000Y-67857500D03*
D44*
X77865000Y-68357500D03*
D46*
X78115000Y-68357500D03*
D44*
X77865000Y-68857500D03*
D46*
X78115000Y-68857500D03*
D44*
X77865000Y-69357500D03*
D46*
X78115000Y-69357500D03*
D47*
X79440000Y-66857500D03*
D48*
X80565000Y-66857500D03*
D47*
X81690000Y-66857500D03*
D19*
X95800000Y-31187500D03*
X95800000Y-33012500D03*
D15*
X82710000Y-73147500D03*
X81750000Y-73147500D03*
D21*
X108350000Y-75575000D03*
X108350000Y-72625000D03*
D22*
X83590000Y-37540000D03*
X83590000Y-36520000D03*
D49*
X62000000Y-171000000D03*
D41*
X90080000Y-43920000D03*
X90080000Y-44880000D03*
X78300000Y-60020000D03*
X78300000Y-60980000D03*
D50*
X137176315Y-55576089D03*
X136226315Y-55576089D03*
X135276315Y-55576089D03*
X135276315Y-57851089D03*
X137176315Y-57851089D03*
D21*
X94600000Y-85375000D03*
X94600000Y-82425000D03*
D51*
X129875000Y-62900000D03*
D52*
X128605000Y-62900000D03*
X127335000Y-62900000D03*
X126065000Y-62900000D03*
X124795000Y-62900000D03*
X123525000Y-62900000D03*
D11*
X73500000Y-73575000D03*
X73500000Y-72025000D03*
D21*
X115450000Y-54400000D03*
X115450000Y-51450000D03*
D15*
X82410000Y-81847500D03*
X81450000Y-81847500D03*
D41*
X85200000Y-57820000D03*
X85200000Y-58780000D03*
D53*
X77660000Y-44980000D03*
D54*
X75500000Y-39900000D03*
D55*
X75500000Y-42440000D03*
X75500000Y-44980000D03*
X75500000Y-47520000D03*
D22*
X54000000Y-44735000D03*
X54000000Y-43715000D03*
D17*
X106100000Y-67325000D03*
X106100000Y-70275000D03*
D13*
X93800000Y-31610000D03*
X93800000Y-32630000D03*
D21*
X110800000Y-64775000D03*
X110800000Y-61825000D03*
D56*
X77925000Y-73700000D03*
X79475000Y-73700000D03*
D30*
X123000000Y-91000000D03*
D57*
X84190000Y-42000000D03*
X85210000Y-42000000D03*
D30*
X67000000Y-185000000D03*
D56*
X77525000Y-63100000D03*
X79075000Y-63100000D03*
D21*
X103700000Y-75575000D03*
X103700000Y-72625000D03*
X113000000Y-75575000D03*
X113000000Y-72625000D03*
D41*
X78490000Y-70920000D03*
X78490000Y-71880000D03*
D21*
X92300000Y-85375000D03*
X92300000Y-82425000D03*
X101500000Y-54350000D03*
X101500000Y-51400000D03*
D49*
X128000000Y-105000000D03*
X62000000Y-105000000D03*
D14*
X96020000Y-40800000D03*
X96980000Y-40800000D03*
D36*
X86930000Y-80622500D03*
X86930000Y-78797500D03*
D21*
X101400000Y-75575000D03*
X101400000Y-72625000D03*
X108450000Y-54375000D03*
X108450000Y-51425000D03*
D19*
X84930000Y-73697500D03*
X84930000Y-75522500D03*
D21*
X110700000Y-85350000D03*
X110700000Y-82400000D03*
D58*
X97010000Y-42800000D03*
X95990000Y-42800000D03*
D13*
X85490000Y-36520000D03*
X85490000Y-37540000D03*
D21*
X106050000Y-75575000D03*
X106050000Y-72625000D03*
D12*
X73570000Y-77750000D03*
X73570000Y-79300000D03*
D11*
X72000000Y-52475000D03*
X72000000Y-50925000D03*
D16*
X90514000Y-142084000D03*
X90012000Y-142084000D03*
X89510000Y-142084000D03*
X89008000Y-142084000D03*
X88506000Y-142084000D03*
X88004000Y-142084000D03*
X87502000Y-142084000D03*
X87000000Y-142084000D03*
X86498000Y-142084000D03*
X85996000Y-142084000D03*
X85494000Y-142084000D03*
X84992000Y-142084000D03*
X84490000Y-142084000D03*
X83988000Y-142084000D03*
X83486000Y-142084000D03*
X83486000Y-149916000D03*
X83988000Y-149916000D03*
X84490000Y-149916000D03*
X84992000Y-149916000D03*
X85494000Y-149916000D03*
X85996000Y-149916000D03*
X86498000Y-149916000D03*
X87000000Y-149916000D03*
X87502000Y-149916000D03*
X88004000Y-149916000D03*
X88506000Y-149916000D03*
X89008000Y-149916000D03*
X89510000Y-149916000D03*
X90012000Y-149916000D03*
X90514000Y-149916000D03*
D29*
X57500000Y-100500000D03*
D37*
X86775000Y-71800000D03*
X85225000Y-71800000D03*
D34*
X129840000Y-59450000D03*
X129840000Y-58490000D03*
D17*
X101500000Y-56475000D03*
X101500000Y-59425000D03*
D24*
X133600000Y-28000000D03*
X134302944Y-26302944D03*
X134302944Y-29697056D03*
X136000000Y-25600000D03*
D25*
X136000000Y-28000000D03*
D24*
X136000000Y-30400000D03*
X137697056Y-26302944D03*
X137697056Y-29697056D03*
X138400000Y-28000000D03*
D21*
X103800000Y-64775000D03*
X103800000Y-61825000D03*
D34*
X76300000Y-68080000D03*
X76300000Y-67120000D03*
D17*
X108400000Y-67325000D03*
X108400000Y-70275000D03*
D37*
X57250000Y-47800000D03*
X55700000Y-47800000D03*
D23*
X62792500Y-59800000D03*
X56292500Y-59800000D03*
D17*
X106100000Y-77700000D03*
X106100000Y-80650000D03*
D59*
X99486000Y-133916000D03*
X99988000Y-133916000D03*
X100490000Y-133916000D03*
X100992000Y-133916000D03*
X101494000Y-133916000D03*
X101996000Y-133916000D03*
X102498000Y-133916000D03*
X103000000Y-133916000D03*
X103502000Y-133916000D03*
X104004000Y-133916000D03*
X104506000Y-133916000D03*
X105008000Y-133916000D03*
X105510000Y-133916000D03*
X106012000Y-133916000D03*
X106514000Y-133916000D03*
X106514000Y-126084000D03*
X106012000Y-126084000D03*
X105510000Y-126084000D03*
X105008000Y-126084000D03*
X104506000Y-126084000D03*
X104004000Y-126084000D03*
X103502000Y-126084000D03*
X103000000Y-126084000D03*
X102498000Y-126084000D03*
X101996000Y-126084000D03*
X101494000Y-126084000D03*
X100992000Y-126084000D03*
X100490000Y-126084000D03*
X99988000Y-126084000D03*
X99486000Y-126084000D03*
D17*
X108400000Y-56525000D03*
X108400000Y-59475000D03*
D11*
X71500000Y-63075000D03*
X71500000Y-61525000D03*
D15*
X136656315Y-59856089D03*
X135696315Y-59856089D03*
D17*
X113000000Y-56525000D03*
X113000000Y-59475000D03*
D56*
X78025000Y-52400000D03*
X79575000Y-52400000D03*
D19*
X84950000Y-52287500D03*
X84950000Y-54112500D03*
D21*
X101490000Y-64775000D03*
X101490000Y-61825000D03*
D15*
X82420000Y-71157500D03*
X81460000Y-71157500D03*
D50*
X133676315Y-55696089D03*
X132726315Y-55696089D03*
X131776315Y-55696089D03*
X131776315Y-57971089D03*
X133676315Y-57971089D03*
D15*
X133680000Y-53400000D03*
X132720000Y-53400000D03*
D22*
X84100000Y-44410000D03*
X84100000Y-43390000D03*
D59*
X99486000Y-149916000D03*
X99988000Y-149916000D03*
X100490000Y-149916000D03*
X100992000Y-149916000D03*
X101494000Y-149916000D03*
X101996000Y-149916000D03*
X102498000Y-149916000D03*
X103000000Y-149916000D03*
X103502000Y-149916000D03*
X104004000Y-149916000D03*
X104506000Y-149916000D03*
X105008000Y-149916000D03*
X105510000Y-149916000D03*
X106012000Y-149916000D03*
X106514000Y-149916000D03*
X106514000Y-142084000D03*
X106012000Y-142084000D03*
X105510000Y-142084000D03*
X105008000Y-142084000D03*
X104506000Y-142084000D03*
X104004000Y-142084000D03*
X103502000Y-142084000D03*
X103000000Y-142084000D03*
X102498000Y-142084000D03*
X101996000Y-142084000D03*
X101494000Y-142084000D03*
X100992000Y-142084000D03*
X100490000Y-142084000D03*
X99988000Y-142084000D03*
X99486000Y-142084000D03*
D41*
X85400000Y-68320000D03*
X85400000Y-69280000D03*
D53*
X77660000Y-33180000D03*
D54*
X75500000Y-28100000D03*
D55*
X75500000Y-30640000D03*
X75500000Y-33180000D03*
X75500000Y-35720000D03*
D56*
X52050000Y-42525000D03*
X53600000Y-42525000D03*
D15*
X82730000Y-51737500D03*
X81770000Y-51737500D03*
D24*
X52600000Y-78000000D03*
X53302944Y-76302944D03*
X53302944Y-79697056D03*
X55000000Y-75600000D03*
D25*
X55000000Y-78000000D03*
D24*
X55000000Y-80400000D03*
X56697056Y-76302944D03*
X56697056Y-79697056D03*
X57400000Y-78000000D03*
D41*
X86100000Y-42920000D03*
X86100000Y-43880000D03*
D18*
X90160000Y-76610000D03*
X97770000Y-76610000D03*
D41*
X91793750Y-43720000D03*
X91793750Y-44680000D03*
D17*
X110700000Y-67325000D03*
X110700000Y-70275000D03*
D34*
X76300000Y-78980000D03*
X76300000Y-78020000D03*
D36*
X86950000Y-59212500D03*
X86950000Y-57387500D03*
D56*
X52050000Y-41050000D03*
X53600000Y-41050000D03*
D21*
X110700000Y-75550000D03*
X110700000Y-72600000D03*
D15*
X97080000Y-36800000D03*
X96120000Y-36800000D03*
D60*
X79837500Y-41700000D03*
X80337500Y-41700000D03*
X80837500Y-41700000D03*
X81337500Y-41700000D03*
X81337500Y-38600000D03*
X80837500Y-38600000D03*
X80337500Y-38600000D03*
X79837500Y-38600000D03*
D17*
X101480000Y-77700000D03*
X101480000Y-80650000D03*
D61*
X84500000Y-34600000D03*
X84500000Y-34100000D03*
X84500000Y-33600000D03*
X84500000Y-33100000D03*
X84500000Y-32600000D03*
X80275000Y-32600000D03*
X80275000Y-33100000D03*
X80275000Y-33600000D03*
X80275000Y-34100000D03*
X80275000Y-34600000D03*
D17*
X113000000Y-77700000D03*
X113000000Y-80650000D03*
D62*
X115900000Y-28530000D03*
X112600000Y-28530000D03*
D29*
X57500000Y-175500000D03*
D43*
X83025000Y-58637500D03*
D44*
X83275000Y-58637500D03*
D43*
X83025000Y-58137500D03*
D44*
X83275000Y-58137500D03*
D43*
X83025000Y-57637500D03*
D44*
X83275000Y-57637500D03*
D43*
X83025000Y-57137500D03*
D44*
X83275000Y-57137500D03*
D43*
X83025000Y-56637500D03*
D44*
X83275000Y-56637500D03*
D45*
X82725000Y-54887500D03*
D43*
X83025000Y-53637500D03*
X83025000Y-54137500D03*
X83025000Y-54637500D03*
X83025000Y-55137500D03*
X83025000Y-55637500D03*
X83025000Y-56137500D03*
D44*
X83275000Y-53637500D03*
X83275000Y-54137500D03*
X83275000Y-54637500D03*
X83275000Y-55137500D03*
X83275000Y-55637500D03*
X83275000Y-56137500D03*
X77875000Y-53637500D03*
X77875000Y-54137500D03*
X77875000Y-54637500D03*
X77875000Y-55137500D03*
X77875000Y-55637500D03*
X77875000Y-56137500D03*
D46*
X78125000Y-53637500D03*
X78125000Y-54137500D03*
X78125000Y-54637500D03*
X78125000Y-55137500D03*
X78125000Y-55637500D03*
X78125000Y-56137500D03*
D45*
X78425000Y-54887500D03*
D44*
X77875000Y-56637500D03*
D46*
X78125000Y-56637500D03*
D44*
X77875000Y-57137500D03*
D46*
X78125000Y-57137500D03*
D44*
X77875000Y-57637500D03*
D46*
X78125000Y-57637500D03*
D44*
X77875000Y-58137500D03*
D46*
X78125000Y-58137500D03*
D44*
X77875000Y-58637500D03*
D46*
X78125000Y-58637500D03*
D47*
X79450000Y-56137500D03*
D48*
X80575000Y-56137500D03*
D47*
X81700000Y-56137500D03*
D41*
X85100000Y-79020000D03*
X85100000Y-79980000D03*
D11*
X74970000Y-73575000D03*
X74970000Y-72025000D03*
D43*
X83005000Y-80047500D03*
D44*
X83255000Y-80047500D03*
D43*
X83005000Y-79547500D03*
D44*
X83255000Y-79547500D03*
D43*
X83005000Y-79047500D03*
D44*
X83255000Y-79047500D03*
D43*
X83005000Y-78547500D03*
D44*
X83255000Y-78547500D03*
D43*
X83005000Y-78047500D03*
D44*
X83255000Y-78047500D03*
D45*
X82705000Y-76297500D03*
D43*
X83005000Y-75047500D03*
X83005000Y-75547500D03*
X83005000Y-76047500D03*
X83005000Y-76547500D03*
X83005000Y-77047500D03*
X83005000Y-77547500D03*
D44*
X83255000Y-75047500D03*
X83255000Y-75547500D03*
X83255000Y-76047500D03*
X83255000Y-76547500D03*
X83255000Y-77047500D03*
X83255000Y-77547500D03*
X77855000Y-75047500D03*
X77855000Y-75547500D03*
X77855000Y-76047500D03*
X77855000Y-76547500D03*
X77855000Y-77047500D03*
X77855000Y-77547500D03*
D46*
X78105000Y-75047500D03*
X78105000Y-75547500D03*
X78105000Y-76047500D03*
X78105000Y-76547500D03*
X78105000Y-77047500D03*
X78105000Y-77547500D03*
D45*
X78405000Y-76297500D03*
D44*
X77855000Y-78047500D03*
D46*
X78105000Y-78047500D03*
D44*
X77855000Y-78547500D03*
D46*
X78105000Y-78547500D03*
D44*
X77855000Y-79047500D03*
D46*
X78105000Y-79047500D03*
D44*
X77855000Y-79547500D03*
D46*
X78105000Y-79547500D03*
D44*
X77855000Y-80047500D03*
D46*
X78105000Y-80047500D03*
D47*
X79430000Y-77547500D03*
D48*
X80555000Y-77547500D03*
D47*
X81680000Y-77547500D03*
D24*
X133600000Y-185000000D03*
X134302944Y-183302944D03*
X134302944Y-186697056D03*
X136000000Y-182600000D03*
D25*
X136000000Y-185000000D03*
D24*
X136000000Y-187400000D03*
X137697056Y-183302944D03*
X137697056Y-186697056D03*
X138400000Y-185000000D03*
D21*
X103800000Y-54375000D03*
X103800000Y-51425000D03*
D49*
X128000000Y-171000000D03*
D11*
X75000000Y-52475000D03*
X75000000Y-50925000D03*
D12*
X75100000Y-68300000D03*
X75100000Y-69850000D03*
D11*
X74500000Y-63075000D03*
X74500000Y-61525000D03*
D12*
X72070000Y-68310000D03*
X72070000Y-69860000D03*
D11*
X73500000Y-52475000D03*
X73500000Y-50925000D03*
D17*
X110700000Y-56525000D03*
X110700000Y-59475000D03*
D11*
X76000000Y-63075000D03*
X76000000Y-61525000D03*
D37*
X86775000Y-61100000D03*
X85225000Y-61100000D03*
D17*
X110700000Y-77700000D03*
X110700000Y-80650000D03*
D29*
X132500000Y-175500000D03*
D24*
X52600000Y-185000000D03*
X53302944Y-183302944D03*
X53302944Y-186697056D03*
X55000000Y-182600000D03*
D25*
X55000000Y-185000000D03*
D24*
X55000000Y-187400000D03*
X56697056Y-183302944D03*
X56697056Y-186697056D03*
X57400000Y-185000000D03*
D21*
X117750000Y-54375000D03*
X117750000Y-51425000D03*
D30*
X67000000Y-91000000D03*
D17*
X101490000Y-67350000D03*
X101490000Y-70300000D03*
D21*
X106150000Y-54375000D03*
X106150000Y-51425000D03*
M02*
