G04 #@! TF.GenerationSoftware,KiCad,Pcbnew,9.0.1*
G04 #@! TF.CreationDate,2025-06-03T01:03:25-04:00*
G04 #@! TF.ProjectId,nerdqaxe++,6e657264-7161-4786-952b-2b2e6b696361,rev?*
G04 #@! TF.SameCoordinates,Original*
G04 #@! TF.FileFunction,Paste,Top*
G04 #@! TF.FilePolarity,Positive*
%FSLAX46Y46*%
G04 Gerber Fmt 4.6, Leading zero omitted, Abs format (unit mm)*
G04 Created by KiCad (PCBNEW 9.0.1) date 2025-06-03 01:03:25*
%MOMM*%
%LPD*%
G01*
G04 APERTURE LIST*
G04 Aperture macros list*
%AMRoundRect*
0 Rectangle with rounded corners*
0 $1 Rounding radius*
0 $2 $3 $4 $5 $6 $7 $8 $9 X,Y pos of 4 corners*
0 Add a 4 corners polygon primitive as box body*
4,1,4,$2,$3,$4,$5,$6,$7,$8,$9,$2,$3,0*
0 Add four circle primitives for the rounded corners*
1,1,$1+$1,$2,$3*
1,1,$1+$1,$4,$5*
1,1,$1+$1,$6,$7*
1,1,$1+$1,$8,$9*
0 Add four rect primitives between the rounded corners*
20,1,$1+$1,$2,$3,$4,$5,0*
20,1,$1+$1,$4,$5,$6,$7,0*
20,1,$1+$1,$6,$7,$8,$9,0*
20,1,$1+$1,$8,$9,$2,$3,0*%
%AMFreePoly0*
4,1,19,0.178553,0.213392,0.221317,0.164040,0.231790,0.115895,0.231790,-0.012362,0.213392,-0.075020,0.197845,-0.094312,0.094312,-0.197845,0.036997,-0.229141,0.012362,-0.231790,-0.115895,-0.231790,-0.178553,-0.213392,-0.221317,-0.164040,-0.231790,-0.115895,-0.231790,0.115895,-0.213392,0.178553,-0.164040,0.221317,-0.115895,0.231790,0.115895,0.231790,0.178553,0.213392,0.178553,0.213392,
$1*%
%AMFreePoly1*
4,1,21,0.122595,0.381565,0.128518,0.376137,0.204814,0.299841,0.231439,0.242746,0.231789,0.234719,0.231789,-0.234719,0.210242,-0.293918,0.204814,-0.299841,0.128518,-0.376137,0.071423,-0.402762,0.063396,-0.403112,-0.139692,-0.403112,-0.198891,-0.381565,-0.230390,-0.327007,-0.231789,-0.311015,-0.231789,0.311015,-0.210242,0.370214,-0.155684,0.401713,-0.139692,0.403112,0.063396,0.403112,
0.122595,0.381565,0.122595,0.381565,$1*%
%AMFreePoly2*
4,1,19,0.075020,0.213392,0.094312,0.197845,0.197845,0.094312,0.229141,0.036997,0.231790,0.012362,0.231790,-0.115895,0.213392,-0.178553,0.164040,-0.221317,0.115895,-0.231790,-0.115895,-0.231790,-0.178553,-0.213392,-0.221317,-0.164040,-0.231790,-0.115895,-0.231790,0.115895,-0.213392,0.178553,-0.164040,0.221317,-0.115895,0.231790,0.012362,0.231790,0.075020,0.213392,0.075020,0.213392,
$1*%
%AMFreePoly3*
4,1,21,0.370214,0.210242,0.401713,0.155684,0.403112,0.139692,0.403112,-0.063396,0.381565,-0.122595,0.376137,-0.128518,0.299841,-0.204814,0.242746,-0.231439,0.234719,-0.231789,-0.234719,-0.231789,-0.293918,-0.210242,-0.299841,-0.204814,-0.376137,-0.128518,-0.402762,-0.071423,-0.403112,-0.063396,-0.403112,0.139692,-0.381565,0.198891,-0.327007,0.230390,-0.311015,0.231789,0.311015,0.231789,
0.370214,0.210242,0.370214,0.210242,$1*%
%AMFreePoly4*
4,1,21,0.293918,0.210242,0.299841,0.204814,0.376137,0.128518,0.402762,0.071423,0.403112,0.063396,0.403112,-0.139692,0.381565,-0.198891,0.327007,-0.230390,0.311015,-0.231789,-0.311015,-0.231789,-0.370214,-0.210242,-0.401713,-0.155684,-0.403112,-0.139692,-0.403112,0.063396,-0.381565,0.122595,-0.376137,0.128518,-0.299841,0.204814,-0.242746,0.231439,-0.234719,0.231789,0.234719,0.231789,
0.293918,0.210242,0.293918,0.210242,$1*%
%AMFreePoly5*
4,1,19,0.178553,0.213392,0.221317,0.164040,0.231790,0.115895,0.231790,-0.115895,0.213392,-0.178553,0.164040,-0.221317,0.115895,-0.231790,-0.012362,-0.231790,-0.075020,-0.213392,-0.094312,-0.197845,-0.197845,-0.094312,-0.229141,-0.036997,-0.231790,-0.012362,-0.231790,0.115895,-0.213392,0.178553,-0.164040,0.221317,-0.115895,0.231790,0.115895,0.231790,0.178553,0.213392,0.178553,0.213392,
$1*%
%AMFreePoly6*
4,1,21,0.198891,0.381565,0.230390,0.327007,0.231789,0.311015,0.231789,-0.311015,0.210242,-0.370214,0.155684,-0.401713,0.139692,-0.403112,-0.063396,-0.403112,-0.122595,-0.381565,-0.128518,-0.376137,-0.204814,-0.299841,-0.231439,-0.242746,-0.231789,-0.234719,-0.231789,0.234719,-0.210242,0.293918,-0.204814,0.299841,-0.128518,0.376137,-0.071423,0.402762,-0.063396,0.403112,0.139692,0.403112,
0.198891,0.381565,0.198891,0.381565,$1*%
%AMFreePoly7*
4,1,19,0.178553,0.213392,0.221317,0.164040,0.231790,0.115895,0.231790,-0.115895,0.213392,-0.178553,0.164040,-0.221317,0.115895,-0.231790,-0.115895,-0.231790,-0.178553,-0.213392,-0.221317,-0.164040,-0.231790,-0.115895,-0.231790,0.012362,-0.213392,0.075020,-0.197845,0.094312,-0.094312,0.197845,-0.036997,0.229141,-0.012362,0.231790,0.115895,0.231790,0.178553,0.213392,0.178553,0.213392,
$1*%
G04 Aperture macros list end*
%ADD10C,0.001000*%
%ADD11C,0.000000*%
%ADD12C,0.750000*%
%ADD13RoundRect,0.225000X0.250000X-0.225000X0.250000X0.225000X-0.250000X0.225000X-0.250000X-0.225000X0*%
%ADD14RoundRect,0.225000X-0.250000X0.225000X-0.250000X-0.225000X0.250000X-0.225000X0.250000X0.225000X0*%
%ADD15RoundRect,0.135000X-0.185000X0.135000X-0.185000X-0.135000X0.185000X-0.135000X0.185000X0.135000X0*%
%ADD16RoundRect,0.140000X-0.140000X-0.170000X0.140000X-0.170000X0.140000X0.170000X-0.140000X0.170000X0*%
%ADD17RoundRect,0.140000X0.140000X0.170000X-0.140000X0.170000X-0.140000X-0.170000X0.140000X-0.170000X0*%
%ADD18RoundRect,0.055250X-0.055250X0.340750X-0.055250X-0.340750X0.055250X-0.340750X0.055250X0.340750X0*%
%ADD19RoundRect,0.250000X-0.650000X0.325000X-0.650000X-0.325000X0.650000X-0.325000X0.650000X0.325000X0*%
%ADD20R,3.300000X2.800000*%
%ADD21RoundRect,0.250000X-0.450000X0.262500X-0.450000X-0.262500X0.450000X-0.262500X0.450000X0.262500X0*%
%ADD22RoundRect,0.050000X-0.100000X0.285000X-0.100000X-0.285000X0.100000X-0.285000X0.100000X0.285000X0*%
%ADD23RoundRect,0.250000X0.650000X-0.325000X0.650000X0.325000X-0.650000X0.325000X-0.650000X-0.325000X0*%
%ADD24RoundRect,0.135000X0.185000X-0.135000X0.185000X0.135000X-0.185000X0.135000X-0.185000X-0.135000X0*%
%ADD25RoundRect,0.250000X1.500000X1.000000X-1.500000X1.000000X-1.500000X-1.000000X1.500000X-1.000000X0*%
%ADD26FreePoly0,90.000000*%
%ADD27FreePoly1,90.000000*%
%ADD28FreePoly2,90.000000*%
%ADD29FreePoly3,90.000000*%
%ADD30RoundRect,0.201557X0.201556X-0.201556X0.201556X0.201556X-0.201556X0.201556X-0.201556X-0.201556X0*%
%ADD31FreePoly4,90.000000*%
%ADD32FreePoly5,90.000000*%
%ADD33FreePoly6,90.000000*%
%ADD34FreePoly7,90.000000*%
%ADD35RoundRect,0.062500X0.062500X-0.375000X0.062500X0.375000X-0.062500X0.375000X-0.062500X-0.375000X0*%
%ADD36RoundRect,0.062500X0.375000X-0.062500X0.375000X0.062500X-0.375000X0.062500X-0.375000X-0.062500X0*%
%ADD37R,0.533400X0.558800*%
%ADD38R,0.533400X0.279400*%
%ADD39RoundRect,0.140000X0.170000X-0.140000X0.170000X0.140000X-0.170000X0.140000X-0.170000X-0.140000X0*%
%ADD40RoundRect,0.250000X0.450000X-0.262500X0.450000X0.262500X-0.450000X0.262500X-0.450000X-0.262500X0*%
%ADD41RoundRect,0.225000X0.225000X0.250000X-0.225000X0.250000X-0.225000X-0.250000X0.225000X-0.250000X0*%
%ADD42RoundRect,0.250000X0.900000X-1.000000X0.900000X1.000000X-0.900000X1.000000X-0.900000X-1.000000X0*%
%ADD43RoundRect,0.140000X-0.170000X0.140000X-0.170000X-0.140000X0.170000X-0.140000X0.170000X0.140000X0*%
%ADD44RoundRect,0.100000X-0.100000X0.637500X-0.100000X-0.637500X0.100000X-0.637500X0.100000X0.637500X0*%
%ADD45RoundRect,0.127000X0.373000X0.023000X-0.373000X0.023000X-0.373000X-0.023000X0.373000X-0.023000X0*%
%ADD46R,0.500000X0.300000*%
%ADD47RoundRect,0.127000X0.078000X1.273000X-0.078000X1.273000X-0.078000X-1.273000X0.078000X-1.273000X0*%
%ADD48RoundRect,0.127000X-0.373000X-0.023000X0.373000X-0.023000X0.373000X0.023000X-0.373000X0.023000X0*%
%ADD49RoundRect,0.150000X-0.150000X0.512500X-0.150000X-0.512500X0.150000X-0.512500X0.150000X0.512500X0*%
%ADD50RoundRect,0.225000X-0.225000X-0.250000X0.225000X-0.250000X0.225000X0.250000X-0.225000X0.250000X0*%
%ADD51RoundRect,0.135000X-0.135000X-0.185000X0.135000X-0.185000X0.135000X0.185000X-0.135000X0.185000X0*%
%ADD52RoundRect,0.135000X0.135000X0.185000X-0.135000X0.185000X-0.135000X-0.185000X0.135000X-0.185000X0*%
%ADD53RoundRect,0.055250X0.055250X-0.340750X0.055250X0.340750X-0.055250X0.340750X-0.055250X-0.340750X0*%
%ADD54R,0.300000X0.800000*%
%ADD55RoundRect,0.087500X0.725000X0.087500X-0.725000X0.087500X-0.725000X-0.087500X0.725000X-0.087500X0*%
%ADD56RoundRect,0.225000X0.225000X0.375000X-0.225000X0.375000X-0.225000X-0.375000X0.225000X-0.375000X0*%
G04 APERTURE END LIST*
D10*
X83435000Y-130650000D02*
X84385000Y-130650000D01*
X84385000Y-129450000D01*
X83435000Y-129450000D01*
X83435000Y-130650000D01*
G36*
X83435000Y-130650000D02*
G01*
X84385000Y-130650000D01*
X84385000Y-129450000D01*
X83435000Y-129450000D01*
X83435000Y-130650000D01*
G37*
X83435000Y-132800000D02*
X84385000Y-132800000D01*
X84385000Y-131600000D01*
X83435000Y-131600000D01*
X83435000Y-132800000D01*
G36*
X83435000Y-132800000D02*
G01*
X84385000Y-132800000D01*
X84385000Y-131600000D01*
X83435000Y-131600000D01*
X83435000Y-132800000D01*
G37*
X83445000Y-128440000D02*
X84395000Y-128440000D01*
X84395000Y-127240000D01*
X83445000Y-127240000D01*
X83445000Y-128440000D01*
G36*
X83445000Y-128440000D02*
G01*
X84395000Y-128440000D01*
X84395000Y-127240000D01*
X83445000Y-127240000D01*
X83445000Y-128440000D01*
G37*
X85295000Y-130640000D02*
X86245000Y-130640000D01*
X86245000Y-129440000D01*
X85295000Y-129440000D01*
X85295000Y-130640000D01*
G36*
X85295000Y-130640000D02*
G01*
X86245000Y-130640000D01*
X86245000Y-129440000D01*
X85295000Y-129440000D01*
X85295000Y-130640000D01*
G37*
X85295000Y-132790000D02*
X86245000Y-132790000D01*
X86245000Y-131590000D01*
X85295000Y-131590000D01*
X85295000Y-132790000D01*
G36*
X85295000Y-132790000D02*
G01*
X86245000Y-132790000D01*
X86245000Y-131590000D01*
X85295000Y-131590000D01*
X85295000Y-132790000D01*
G37*
X85305000Y-128430000D02*
X86255000Y-128430000D01*
X86255000Y-127230000D01*
X85305000Y-127230000D01*
X85305000Y-128430000D01*
G36*
X85305000Y-128430000D02*
G01*
X86255000Y-128430000D01*
X86255000Y-127230000D01*
X85305000Y-127230000D01*
X85305000Y-128430000D01*
G37*
X87125000Y-130630000D02*
X88075000Y-130630000D01*
X88075000Y-129430000D01*
X87125000Y-129430000D01*
X87125000Y-130630000D01*
G36*
X87125000Y-130630000D02*
G01*
X88075000Y-130630000D01*
X88075000Y-129430000D01*
X87125000Y-129430000D01*
X87125000Y-130630000D01*
G37*
X87125000Y-132780000D02*
X88075000Y-132780000D01*
X88075000Y-131580000D01*
X87125000Y-131580000D01*
X87125000Y-132780000D01*
G36*
X87125000Y-132780000D02*
G01*
X88075000Y-132780000D01*
X88075000Y-131580000D01*
X87125000Y-131580000D01*
X87125000Y-132780000D01*
G37*
X87135000Y-128420000D02*
X88085000Y-128420000D01*
X88085000Y-127220000D01*
X87135000Y-127220000D01*
X87135000Y-128420000D01*
G36*
X87135000Y-128420000D02*
G01*
X88085000Y-128420000D01*
X88085000Y-127220000D01*
X87135000Y-127220000D01*
X87135000Y-128420000D01*
G37*
X89340000Y-128460000D02*
X90460000Y-128460000D01*
X90460000Y-127260000D01*
X89340000Y-127260000D01*
X89340000Y-128460000D01*
G36*
X89340000Y-128460000D02*
G01*
X90460000Y-128460000D01*
X90460000Y-127260000D01*
X89340000Y-127260000D01*
X89340000Y-128460000D01*
G37*
X89350000Y-130600000D02*
X90460000Y-130600000D01*
X90460000Y-129400000D01*
X89350000Y-129400000D01*
X89350000Y-130600000D01*
G36*
X89350000Y-130600000D02*
G01*
X90460000Y-130600000D01*
X90460000Y-129400000D01*
X89350000Y-129400000D01*
X89350000Y-130600000D01*
G37*
X89370000Y-132780000D02*
X90480000Y-132780000D01*
X90480000Y-131580000D01*
X89370000Y-131580000D01*
X89370000Y-132780000D01*
G36*
X89370000Y-132780000D02*
G01*
X90480000Y-132780000D01*
X90480000Y-131580000D01*
X89370000Y-131580000D01*
X89370000Y-132780000D01*
G37*
D11*
G36*
X56619900Y-45150000D02*
G01*
X55880100Y-45150000D01*
X55880100Y-43927600D01*
X56619900Y-43927600D01*
X56619900Y-45150000D01*
G37*
G36*
X56619900Y-46572400D02*
G01*
X55880100Y-46572400D01*
X55880100Y-45350000D01*
X56619900Y-45350000D01*
X56619900Y-46572400D01*
G37*
G36*
X79165000Y-64417500D02*
G01*
X80415000Y-64417500D01*
X80415000Y-65412500D01*
X79165000Y-65412500D01*
X79165000Y-64417500D01*
G37*
G36*
X79165000Y-65712500D02*
G01*
X80415000Y-65712500D01*
X80415000Y-66707500D01*
X79165000Y-66707500D01*
X79165000Y-65712500D01*
G37*
G36*
X79165000Y-67007500D02*
G01*
X80415000Y-67007500D01*
X80415000Y-68002500D01*
X79165000Y-68002500D01*
X79165000Y-67007500D01*
G37*
G36*
X79165000Y-68302500D02*
G01*
X80415000Y-68302500D01*
X80415000Y-69297500D01*
X79165000Y-69297500D01*
X79165000Y-68302500D01*
G37*
G36*
X79305000Y-69597500D02*
G01*
X79555000Y-69597500D01*
X79555000Y-69908500D01*
X79305000Y-69908500D01*
X79305000Y-69597500D01*
G37*
G36*
X79315000Y-63806500D02*
G01*
X79565000Y-63806500D01*
X79565000Y-64117500D01*
X79315000Y-64117500D01*
X79315000Y-63806500D01*
G37*
G36*
X80715000Y-65712500D02*
G01*
X81965000Y-65712500D01*
X81965000Y-66707500D01*
X80715000Y-66707500D01*
X80715000Y-65712500D01*
G37*
G36*
X80715000Y-67007500D02*
G01*
X81965000Y-67007500D01*
X81965000Y-68002500D01*
X80715000Y-68002500D01*
X80715000Y-67007500D01*
G37*
G36*
X80715000Y-68302500D02*
G01*
X81965000Y-68302500D01*
X81965000Y-69297500D01*
X80715000Y-69297500D01*
X80715000Y-68302500D01*
G37*
G36*
X80725000Y-64417500D02*
G01*
X81975000Y-64417500D01*
X81975000Y-65412500D01*
X80725000Y-65412500D01*
X80725000Y-64417500D01*
G37*
G36*
X81565000Y-63806500D02*
G01*
X81815000Y-63806500D01*
X81815000Y-64117500D01*
X81565000Y-64117500D01*
X81565000Y-63806500D01*
G37*
G36*
X81565000Y-69597500D02*
G01*
X81815000Y-69597500D01*
X81815000Y-69908500D01*
X81565000Y-69908500D01*
X81565000Y-69597500D01*
G37*
D12*
X62375000Y-171000000D02*
G75*
G02*
X61625000Y-171000000I-375000J0D01*
G01*
X61625000Y-171000000D02*
G75*
G02*
X62375000Y-171000000I375000J0D01*
G01*
X128375000Y-105000000D02*
G75*
G02*
X127625000Y-105000000I-375000J0D01*
G01*
X127625000Y-105000000D02*
G75*
G02*
X128375000Y-105000000I375000J0D01*
G01*
X62375000Y-105000000D02*
G75*
G02*
X61625000Y-105000000I-375000J0D01*
G01*
X61625000Y-105000000D02*
G75*
G02*
X62375000Y-105000000I375000J0D01*
G01*
D10*
X83435000Y-146650000D02*
X84385000Y-146650000D01*
X84385000Y-145450000D01*
X83435000Y-145450000D01*
X83435000Y-146650000D01*
G36*
X83435000Y-146650000D02*
G01*
X84385000Y-146650000D01*
X84385000Y-145450000D01*
X83435000Y-145450000D01*
X83435000Y-146650000D01*
G37*
X83435000Y-148800000D02*
X84385000Y-148800000D01*
X84385000Y-147600000D01*
X83435000Y-147600000D01*
X83435000Y-148800000D01*
G36*
X83435000Y-148800000D02*
G01*
X84385000Y-148800000D01*
X84385000Y-147600000D01*
X83435000Y-147600000D01*
X83435000Y-148800000D01*
G37*
X83445000Y-144440000D02*
X84395000Y-144440000D01*
X84395000Y-143240000D01*
X83445000Y-143240000D01*
X83445000Y-144440000D01*
G36*
X83445000Y-144440000D02*
G01*
X84395000Y-144440000D01*
X84395000Y-143240000D01*
X83445000Y-143240000D01*
X83445000Y-144440000D01*
G37*
X85295000Y-146640000D02*
X86245000Y-146640000D01*
X86245000Y-145440000D01*
X85295000Y-145440000D01*
X85295000Y-146640000D01*
G36*
X85295000Y-146640000D02*
G01*
X86245000Y-146640000D01*
X86245000Y-145440000D01*
X85295000Y-145440000D01*
X85295000Y-146640000D01*
G37*
X85295000Y-148790000D02*
X86245000Y-148790000D01*
X86245000Y-147590000D01*
X85295000Y-147590000D01*
X85295000Y-148790000D01*
G36*
X85295000Y-148790000D02*
G01*
X86245000Y-148790000D01*
X86245000Y-147590000D01*
X85295000Y-147590000D01*
X85295000Y-148790000D01*
G37*
X85305000Y-144430000D02*
X86255000Y-144430000D01*
X86255000Y-143230000D01*
X85305000Y-143230000D01*
X85305000Y-144430000D01*
G36*
X85305000Y-144430000D02*
G01*
X86255000Y-144430000D01*
X86255000Y-143230000D01*
X85305000Y-143230000D01*
X85305000Y-144430000D01*
G37*
X87125000Y-146630000D02*
X88075000Y-146630000D01*
X88075000Y-145430000D01*
X87125000Y-145430000D01*
X87125000Y-146630000D01*
G36*
X87125000Y-146630000D02*
G01*
X88075000Y-146630000D01*
X88075000Y-145430000D01*
X87125000Y-145430000D01*
X87125000Y-146630000D01*
G37*
X87125000Y-148780000D02*
X88075000Y-148780000D01*
X88075000Y-147580000D01*
X87125000Y-147580000D01*
X87125000Y-148780000D01*
G36*
X87125000Y-148780000D02*
G01*
X88075000Y-148780000D01*
X88075000Y-147580000D01*
X87125000Y-147580000D01*
X87125000Y-148780000D01*
G37*
X87135000Y-144420000D02*
X88085000Y-144420000D01*
X88085000Y-143220000D01*
X87135000Y-143220000D01*
X87135000Y-144420000D01*
G36*
X87135000Y-144420000D02*
G01*
X88085000Y-144420000D01*
X88085000Y-143220000D01*
X87135000Y-143220000D01*
X87135000Y-144420000D01*
G37*
X89340000Y-144460000D02*
X90460000Y-144460000D01*
X90460000Y-143260000D01*
X89340000Y-143260000D01*
X89340000Y-144460000D01*
G36*
X89340000Y-144460000D02*
G01*
X90460000Y-144460000D01*
X90460000Y-143260000D01*
X89340000Y-143260000D01*
X89340000Y-144460000D01*
G37*
X89350000Y-146600000D02*
X90460000Y-146600000D01*
X90460000Y-145400000D01*
X89350000Y-145400000D01*
X89350000Y-146600000D01*
G36*
X89350000Y-146600000D02*
G01*
X90460000Y-146600000D01*
X90460000Y-145400000D01*
X89350000Y-145400000D01*
X89350000Y-146600000D01*
G37*
X89370000Y-148780000D02*
X90480000Y-148780000D01*
X90480000Y-147580000D01*
X89370000Y-147580000D01*
X89370000Y-148780000D01*
G36*
X89370000Y-148780000D02*
G01*
X90480000Y-148780000D01*
X90480000Y-147580000D01*
X89370000Y-147580000D01*
X89370000Y-148780000D01*
G37*
X100630000Y-127220000D02*
X99520000Y-127220000D01*
X99520000Y-128420000D01*
X100630000Y-128420000D01*
X100630000Y-127220000D01*
G36*
X100630000Y-127220000D02*
G01*
X99520000Y-127220000D01*
X99520000Y-128420000D01*
X100630000Y-128420000D01*
X100630000Y-127220000D01*
G37*
X100650000Y-129400000D02*
X99540000Y-129400000D01*
X99540000Y-130600000D01*
X100650000Y-130600000D01*
X100650000Y-129400000D01*
G36*
X100650000Y-129400000D02*
G01*
X99540000Y-129400000D01*
X99540000Y-130600000D01*
X100650000Y-130600000D01*
X100650000Y-129400000D01*
G37*
X100660000Y-131540000D02*
X99540000Y-131540000D01*
X99540000Y-132740000D01*
X100660000Y-132740000D01*
X100660000Y-131540000D01*
G36*
X100660000Y-131540000D02*
G01*
X99540000Y-131540000D01*
X99540000Y-132740000D01*
X100660000Y-132740000D01*
X100660000Y-131540000D01*
G37*
X102865000Y-131580000D02*
X101915000Y-131580000D01*
X101915000Y-132780000D01*
X102865000Y-132780000D01*
X102865000Y-131580000D01*
G36*
X102865000Y-131580000D02*
G01*
X101915000Y-131580000D01*
X101915000Y-132780000D01*
X102865000Y-132780000D01*
X102865000Y-131580000D01*
G37*
X102875000Y-127220000D02*
X101925000Y-127220000D01*
X101925000Y-128420000D01*
X102875000Y-128420000D01*
X102875000Y-127220000D01*
G36*
X102875000Y-127220000D02*
G01*
X101925000Y-127220000D01*
X101925000Y-128420000D01*
X102875000Y-128420000D01*
X102875000Y-127220000D01*
G37*
X102875000Y-129370000D02*
X101925000Y-129370000D01*
X101925000Y-130570000D01*
X102875000Y-130570000D01*
X102875000Y-129370000D01*
G36*
X102875000Y-129370000D02*
G01*
X101925000Y-129370000D01*
X101925000Y-130570000D01*
X102875000Y-130570000D01*
X102875000Y-129370000D01*
G37*
X104695000Y-131570000D02*
X103745000Y-131570000D01*
X103745000Y-132770000D01*
X104695000Y-132770000D01*
X104695000Y-131570000D01*
G36*
X104695000Y-131570000D02*
G01*
X103745000Y-131570000D01*
X103745000Y-132770000D01*
X104695000Y-132770000D01*
X104695000Y-131570000D01*
G37*
X104705000Y-127210000D02*
X103755000Y-127210000D01*
X103755000Y-128410000D01*
X104705000Y-128410000D01*
X104705000Y-127210000D01*
G36*
X104705000Y-127210000D02*
G01*
X103755000Y-127210000D01*
X103755000Y-128410000D01*
X104705000Y-128410000D01*
X104705000Y-127210000D01*
G37*
X104705000Y-129360000D02*
X103755000Y-129360000D01*
X103755000Y-130560000D01*
X104705000Y-130560000D01*
X104705000Y-129360000D01*
G36*
X104705000Y-129360000D02*
G01*
X103755000Y-129360000D01*
X103755000Y-130560000D01*
X104705000Y-130560000D01*
X104705000Y-129360000D01*
G37*
X106555000Y-131560000D02*
X105605000Y-131560000D01*
X105605000Y-132760000D01*
X106555000Y-132760000D01*
X106555000Y-131560000D01*
G36*
X106555000Y-131560000D02*
G01*
X105605000Y-131560000D01*
X105605000Y-132760000D01*
X106555000Y-132760000D01*
X106555000Y-131560000D01*
G37*
X106565000Y-127200000D02*
X105615000Y-127200000D01*
X105615000Y-128400000D01*
X106565000Y-128400000D01*
X106565000Y-127200000D01*
G36*
X106565000Y-127200000D02*
G01*
X105615000Y-127200000D01*
X105615000Y-128400000D01*
X106565000Y-128400000D01*
X106565000Y-127200000D01*
G37*
X106565000Y-129350000D02*
X105615000Y-129350000D01*
X105615000Y-130550000D01*
X106565000Y-130550000D01*
X106565000Y-129350000D01*
G36*
X106565000Y-129350000D02*
G01*
X105615000Y-129350000D01*
X105615000Y-130550000D01*
X106565000Y-130550000D01*
X106565000Y-129350000D01*
G37*
X100630000Y-143220000D02*
X99520000Y-143220000D01*
X99520000Y-144420000D01*
X100630000Y-144420000D01*
X100630000Y-143220000D01*
G36*
X100630000Y-143220000D02*
G01*
X99520000Y-143220000D01*
X99520000Y-144420000D01*
X100630000Y-144420000D01*
X100630000Y-143220000D01*
G37*
X100650000Y-145400000D02*
X99540000Y-145400000D01*
X99540000Y-146600000D01*
X100650000Y-146600000D01*
X100650000Y-145400000D01*
G36*
X100650000Y-145400000D02*
G01*
X99540000Y-145400000D01*
X99540000Y-146600000D01*
X100650000Y-146600000D01*
X100650000Y-145400000D01*
G37*
X100660000Y-147540000D02*
X99540000Y-147540000D01*
X99540000Y-148740000D01*
X100660000Y-148740000D01*
X100660000Y-147540000D01*
G36*
X100660000Y-147540000D02*
G01*
X99540000Y-147540000D01*
X99540000Y-148740000D01*
X100660000Y-148740000D01*
X100660000Y-147540000D01*
G37*
X102865000Y-147580000D02*
X101915000Y-147580000D01*
X101915000Y-148780000D01*
X102865000Y-148780000D01*
X102865000Y-147580000D01*
G36*
X102865000Y-147580000D02*
G01*
X101915000Y-147580000D01*
X101915000Y-148780000D01*
X102865000Y-148780000D01*
X102865000Y-147580000D01*
G37*
X102875000Y-143220000D02*
X101925000Y-143220000D01*
X101925000Y-144420000D01*
X102875000Y-144420000D01*
X102875000Y-143220000D01*
G36*
X102875000Y-143220000D02*
G01*
X101925000Y-143220000D01*
X101925000Y-144420000D01*
X102875000Y-144420000D01*
X102875000Y-143220000D01*
G37*
X102875000Y-145370000D02*
X101925000Y-145370000D01*
X101925000Y-146570000D01*
X102875000Y-146570000D01*
X102875000Y-145370000D01*
G36*
X102875000Y-145370000D02*
G01*
X101925000Y-145370000D01*
X101925000Y-146570000D01*
X102875000Y-146570000D01*
X102875000Y-145370000D01*
G37*
X104695000Y-147570000D02*
X103745000Y-147570000D01*
X103745000Y-148770000D01*
X104695000Y-148770000D01*
X104695000Y-147570000D01*
G36*
X104695000Y-147570000D02*
G01*
X103745000Y-147570000D01*
X103745000Y-148770000D01*
X104695000Y-148770000D01*
X104695000Y-147570000D01*
G37*
X104705000Y-143210000D02*
X103755000Y-143210000D01*
X103755000Y-144410000D01*
X104705000Y-144410000D01*
X104705000Y-143210000D01*
G36*
X104705000Y-143210000D02*
G01*
X103755000Y-143210000D01*
X103755000Y-144410000D01*
X104705000Y-144410000D01*
X104705000Y-143210000D01*
G37*
X104705000Y-145360000D02*
X103755000Y-145360000D01*
X103755000Y-146560000D01*
X104705000Y-146560000D01*
X104705000Y-145360000D01*
G36*
X104705000Y-145360000D02*
G01*
X103755000Y-145360000D01*
X103755000Y-146560000D01*
X104705000Y-146560000D01*
X104705000Y-145360000D01*
G37*
X106555000Y-147560000D02*
X105605000Y-147560000D01*
X105605000Y-148760000D01*
X106555000Y-148760000D01*
X106555000Y-147560000D01*
G36*
X106555000Y-147560000D02*
G01*
X105605000Y-147560000D01*
X105605000Y-148760000D01*
X106555000Y-148760000D01*
X106555000Y-147560000D01*
G37*
X106565000Y-143200000D02*
X105615000Y-143200000D01*
X105615000Y-144400000D01*
X106565000Y-144400000D01*
X106565000Y-143200000D01*
G36*
X106565000Y-143200000D02*
G01*
X105615000Y-143200000D01*
X105615000Y-144400000D01*
X106565000Y-144400000D01*
X106565000Y-143200000D01*
G37*
X106565000Y-145350000D02*
X105615000Y-145350000D01*
X105615000Y-146550000D01*
X106565000Y-146550000D01*
X106565000Y-145350000D01*
G36*
X106565000Y-145350000D02*
G01*
X105615000Y-145350000D01*
X105615000Y-146550000D01*
X106565000Y-146550000D01*
X106565000Y-145350000D01*
G37*
G36*
X79175000Y-53697500D02*
G01*
X80425000Y-53697500D01*
X80425000Y-54692500D01*
X79175000Y-54692500D01*
X79175000Y-53697500D01*
G37*
G36*
X79175000Y-54992500D02*
G01*
X80425000Y-54992500D01*
X80425000Y-55987500D01*
X79175000Y-55987500D01*
X79175000Y-54992500D01*
G37*
G36*
X79175000Y-56287500D02*
G01*
X80425000Y-56287500D01*
X80425000Y-57282500D01*
X79175000Y-57282500D01*
X79175000Y-56287500D01*
G37*
G36*
X79175000Y-57582500D02*
G01*
X80425000Y-57582500D01*
X80425000Y-58577500D01*
X79175000Y-58577500D01*
X79175000Y-57582500D01*
G37*
G36*
X79315000Y-58877500D02*
G01*
X79565000Y-58877500D01*
X79565000Y-59188500D01*
X79315000Y-59188500D01*
X79315000Y-58877500D01*
G37*
G36*
X79325000Y-53086500D02*
G01*
X79575000Y-53086500D01*
X79575000Y-53397500D01*
X79325000Y-53397500D01*
X79325000Y-53086500D01*
G37*
G36*
X80725000Y-54992500D02*
G01*
X81975000Y-54992500D01*
X81975000Y-55987500D01*
X80725000Y-55987500D01*
X80725000Y-54992500D01*
G37*
G36*
X80725000Y-56287500D02*
G01*
X81975000Y-56287500D01*
X81975000Y-57282500D01*
X80725000Y-57282500D01*
X80725000Y-56287500D01*
G37*
G36*
X80725000Y-57582500D02*
G01*
X81975000Y-57582500D01*
X81975000Y-58577500D01*
X80725000Y-58577500D01*
X80725000Y-57582500D01*
G37*
G36*
X80735000Y-53697500D02*
G01*
X81985000Y-53697500D01*
X81985000Y-54692500D01*
X80735000Y-54692500D01*
X80735000Y-53697500D01*
G37*
G36*
X81575000Y-53086500D02*
G01*
X81825000Y-53086500D01*
X81825000Y-53397500D01*
X81575000Y-53397500D01*
X81575000Y-53086500D01*
G37*
G36*
X81575000Y-58877500D02*
G01*
X81825000Y-58877500D01*
X81825000Y-59188500D01*
X81575000Y-59188500D01*
X81575000Y-58877500D01*
G37*
G36*
X79155000Y-75107500D02*
G01*
X80405000Y-75107500D01*
X80405000Y-76102500D01*
X79155000Y-76102500D01*
X79155000Y-75107500D01*
G37*
G36*
X79155000Y-76402500D02*
G01*
X80405000Y-76402500D01*
X80405000Y-77397500D01*
X79155000Y-77397500D01*
X79155000Y-76402500D01*
G37*
G36*
X79155000Y-77697500D02*
G01*
X80405000Y-77697500D01*
X80405000Y-78692500D01*
X79155000Y-78692500D01*
X79155000Y-77697500D01*
G37*
G36*
X79155000Y-78992500D02*
G01*
X80405000Y-78992500D01*
X80405000Y-79987500D01*
X79155000Y-79987500D01*
X79155000Y-78992500D01*
G37*
G36*
X79295000Y-80287500D02*
G01*
X79545000Y-80287500D01*
X79545000Y-80598500D01*
X79295000Y-80598500D01*
X79295000Y-80287500D01*
G37*
G36*
X79305000Y-74496500D02*
G01*
X79555000Y-74496500D01*
X79555000Y-74807500D01*
X79305000Y-74807500D01*
X79305000Y-74496500D01*
G37*
G36*
X80705000Y-76402500D02*
G01*
X81955000Y-76402500D01*
X81955000Y-77397500D01*
X80705000Y-77397500D01*
X80705000Y-76402500D01*
G37*
G36*
X80705000Y-77697500D02*
G01*
X81955000Y-77697500D01*
X81955000Y-78692500D01*
X80705000Y-78692500D01*
X80705000Y-77697500D01*
G37*
G36*
X80705000Y-78992500D02*
G01*
X81955000Y-78992500D01*
X81955000Y-79987500D01*
X80705000Y-79987500D01*
X80705000Y-78992500D01*
G37*
G36*
X80715000Y-75107500D02*
G01*
X81965000Y-75107500D01*
X81965000Y-76102500D01*
X80715000Y-76102500D01*
X80715000Y-75107500D01*
G37*
G36*
X81555000Y-74496500D02*
G01*
X81805000Y-74496500D01*
X81805000Y-74807500D01*
X81555000Y-74807500D01*
X81555000Y-74496500D01*
G37*
G36*
X81555000Y-80287500D02*
G01*
X81805000Y-80287500D01*
X81805000Y-80598500D01*
X81555000Y-80598500D01*
X81555000Y-80287500D01*
G37*
D12*
X128375000Y-171000000D02*
G75*
G02*
X127625000Y-171000000I-375000J0D01*
G01*
X127625000Y-171000000D02*
G75*
G02*
X128375000Y-171000000I375000J0D01*
G01*
D13*
X72000000Y-73575000D03*
X72000000Y-72025000D03*
D14*
X73570000Y-68310000D03*
X73570000Y-69860000D03*
D15*
X81600000Y-29640000D03*
X81600000Y-30660000D03*
D16*
X96020000Y-38800000D03*
X96980000Y-38800000D03*
D17*
X133156315Y-59976089D03*
X132196315Y-59976089D03*
D18*
X90514000Y-126084000D03*
X90012000Y-126084000D03*
X89510000Y-126084000D03*
X89008000Y-126084000D03*
X88506000Y-126084000D03*
X88004000Y-126084000D03*
X87502000Y-126084000D03*
X87000000Y-126084000D03*
X86498000Y-126084000D03*
X85996000Y-126084000D03*
X85494000Y-126084000D03*
X84992000Y-126084000D03*
X84490000Y-126084000D03*
X83988000Y-126084000D03*
X83486000Y-126084000D03*
X83486000Y-133916000D03*
X83988000Y-133916000D03*
X84490000Y-133916000D03*
X84992000Y-133916000D03*
X85494000Y-133916000D03*
X85996000Y-133916000D03*
X86498000Y-133916000D03*
X87000000Y-133916000D03*
X87502000Y-133916000D03*
X88004000Y-133916000D03*
X88506000Y-133916000D03*
X89008000Y-133916000D03*
X89510000Y-133916000D03*
X90012000Y-133916000D03*
X90514000Y-133916000D03*
D15*
X79700000Y-29640000D03*
X79700000Y-30660000D03*
X91900000Y-31600000D03*
X91900000Y-32620000D03*
D19*
X108400000Y-77700000D03*
X108400000Y-80650000D03*
D20*
X90180000Y-55200000D03*
X97790000Y-55200000D03*
D14*
X74800000Y-57525000D03*
X74800000Y-59075000D03*
D21*
X84940000Y-63007500D03*
X84940000Y-64832500D03*
D22*
X109840000Y-137280000D03*
X109340000Y-137280000D03*
X108840000Y-137280000D03*
X108840000Y-138760000D03*
X109340000Y-138760000D03*
X109840000Y-138760000D03*
D14*
X75100000Y-77750000D03*
X75100000Y-79300000D03*
D19*
X103800000Y-56525000D03*
X103800000Y-59475000D03*
D23*
X108450000Y-64775000D03*
X108450000Y-61825000D03*
D24*
X89900000Y-32610000D03*
X89900000Y-31590000D03*
D17*
X137180000Y-53500000D03*
X136220000Y-53500000D03*
D23*
X110750000Y-54400000D03*
X110750000Y-51450000D03*
D25*
X62750000Y-69250000D03*
X56250000Y-69250000D03*
D24*
X93493750Y-44510000D03*
X93493750Y-43490000D03*
D13*
X76470000Y-73575000D03*
X76470000Y-72025000D03*
D26*
X88306250Y-40225000D03*
D27*
X89093750Y-40225000D03*
X90093750Y-40225000D03*
X91093750Y-40225000D03*
D28*
X91881250Y-40225000D03*
D29*
X88306250Y-39437500D03*
D30*
X89093750Y-39437500D03*
X90093750Y-39437500D03*
X91093750Y-39437500D03*
D31*
X91881250Y-39437500D03*
D29*
X88306250Y-38437500D03*
D30*
X89093750Y-38437500D03*
X90093750Y-38437500D03*
X91093750Y-38437500D03*
D31*
X91881250Y-38437500D03*
D29*
X88306250Y-37437500D03*
D30*
X89093750Y-37437500D03*
X90093750Y-37437500D03*
X91093750Y-37437500D03*
D31*
X91881250Y-37437500D03*
D32*
X88306250Y-36650000D03*
D33*
X89093750Y-36650000D03*
X90093750Y-36650000D03*
X91093750Y-36650000D03*
D34*
X91881250Y-36650000D03*
D35*
X87843750Y-41375000D03*
X88343750Y-41375000D03*
X88843750Y-41375000D03*
X89343750Y-41375000D03*
X89843750Y-41375000D03*
X90343750Y-41375000D03*
X90843750Y-41375000D03*
X91343750Y-41375000D03*
X91843750Y-41375000D03*
X92343750Y-41375000D03*
D36*
X93031250Y-40687500D03*
X93031250Y-40187500D03*
X93031250Y-39687500D03*
X93031250Y-39187500D03*
X93031250Y-38687500D03*
X93031250Y-38187500D03*
X93031250Y-37687500D03*
X93031250Y-37187500D03*
X93031250Y-36687500D03*
X93031250Y-36187500D03*
D35*
X92343750Y-35500000D03*
X91843750Y-35500000D03*
X91343750Y-35500000D03*
X90843750Y-35500000D03*
X90343750Y-35500000D03*
X89843750Y-35500000D03*
X89343750Y-35500000D03*
X88843750Y-35500000D03*
X88343750Y-35500000D03*
X87843750Y-35500000D03*
D36*
X87156250Y-36187500D03*
X87156250Y-36687500D03*
X87156250Y-37187500D03*
X87156250Y-37687500D03*
X87156250Y-38187500D03*
X87156250Y-38687500D03*
X87156250Y-39187500D03*
X87156250Y-39687500D03*
X87156250Y-40187500D03*
X87156250Y-40687500D03*
D19*
X106100000Y-56525000D03*
X106100000Y-59475000D03*
D23*
X101500000Y-85375000D03*
X101500000Y-82425000D03*
D14*
X73325000Y-57525000D03*
X73325000Y-59075000D03*
D16*
X80420000Y-36900000D03*
X81380000Y-36900000D03*
D37*
X57329500Y-46387501D03*
D38*
X57329500Y-45750126D03*
X57329500Y-45250000D03*
X57329500Y-44749874D03*
D37*
X57329500Y-44112499D03*
X55170500Y-44112499D03*
D38*
X55170500Y-44749874D03*
X55170500Y-45250000D03*
X55170500Y-45750126D03*
D37*
X55170500Y-46387501D03*
D23*
X108400000Y-85350000D03*
X108400000Y-82400000D03*
D19*
X103800000Y-77700000D03*
X103800000Y-80650000D03*
D39*
X87900000Y-32980000D03*
X87900000Y-32020000D03*
D14*
X72070000Y-77750000D03*
X72070000Y-79300000D03*
D13*
X76500000Y-52475000D03*
X76500000Y-50925000D03*
D23*
X113000000Y-85375000D03*
X113000000Y-82425000D03*
D16*
X83820000Y-30850000D03*
X84780000Y-30850000D03*
D24*
X88093750Y-44910000D03*
X88093750Y-43890000D03*
D23*
X89950000Y-85375000D03*
X89950000Y-82425000D03*
D19*
X113000000Y-67325000D03*
X113000000Y-70275000D03*
D17*
X82720000Y-62457500D03*
X81760000Y-62457500D03*
D23*
X106150000Y-64775000D03*
X106150000Y-61825000D03*
D13*
X73030000Y-63085000D03*
X73030000Y-61535000D03*
D40*
X86940000Y-69932500D03*
X86940000Y-68107500D03*
D21*
X97700000Y-31187500D03*
X97700000Y-33012500D03*
D41*
X57250000Y-49275000D03*
X55700000Y-49275000D03*
D23*
X96900000Y-85375000D03*
X96900000Y-82425000D03*
D19*
X103800000Y-67325000D03*
X103800000Y-70275000D03*
D42*
X69450000Y-48050000D03*
X69450000Y-43750000D03*
D23*
X103800000Y-85350000D03*
X103800000Y-82400000D03*
X106100000Y-85350000D03*
X106100000Y-82400000D03*
X113100000Y-54400000D03*
X113100000Y-51450000D03*
D43*
X78480000Y-81420000D03*
X78480000Y-82380000D03*
D23*
X99200000Y-85375000D03*
X99200000Y-82425000D03*
D44*
X127980000Y-54077500D03*
X127330000Y-54077500D03*
X126680000Y-54077500D03*
X126030000Y-54077500D03*
X125380000Y-54077500D03*
X124730000Y-54077500D03*
X124080000Y-54077500D03*
X124080000Y-59802500D03*
X124730000Y-59802500D03*
X125380000Y-59802500D03*
X126030000Y-59802500D03*
X126680000Y-59802500D03*
X127330000Y-59802500D03*
X127980000Y-59802500D03*
D17*
X81067500Y-43400000D03*
X80107500Y-43400000D03*
D20*
X90170000Y-65920000D03*
X97780000Y-65920000D03*
D43*
X129860000Y-54600000D03*
X129860000Y-55560000D03*
D39*
X76000000Y-58080000D03*
X76000000Y-57120000D03*
D24*
X58500000Y-44210000D03*
X58500000Y-43190000D03*
X138880000Y-55267500D03*
X138880000Y-54247500D03*
D23*
X113100000Y-64750000D03*
X113100000Y-61800000D03*
D16*
X96220000Y-44600000D03*
X97180000Y-44600000D03*
D17*
X57555000Y-42850000D03*
X56595000Y-42850000D03*
X82430000Y-60437500D03*
X81470000Y-60437500D03*
D14*
X71850000Y-57525000D03*
X71850000Y-59075000D03*
D45*
X83015000Y-69357500D03*
D46*
X83265000Y-69357500D03*
D45*
X83015000Y-68857500D03*
D46*
X83265000Y-68857500D03*
D45*
X83015000Y-68357500D03*
D46*
X83265000Y-68357500D03*
D45*
X83015000Y-67857500D03*
D46*
X83265000Y-67857500D03*
D45*
X83015000Y-67357500D03*
D46*
X83265000Y-67357500D03*
D47*
X82715000Y-65607500D03*
D45*
X83015000Y-64357500D03*
X83015000Y-64857500D03*
X83015000Y-65357500D03*
X83015000Y-65857500D03*
X83015000Y-66357500D03*
X83015000Y-66857500D03*
D46*
X83265000Y-64357500D03*
X83265000Y-64857500D03*
X83265000Y-65357500D03*
X83265000Y-65857500D03*
X83265000Y-66357500D03*
X83265000Y-66857500D03*
X77865000Y-64357500D03*
X77865000Y-64857500D03*
X77865000Y-65357500D03*
X77865000Y-65857500D03*
X77865000Y-66357500D03*
X77865000Y-66857500D03*
D48*
X78115000Y-64357500D03*
X78115000Y-64857500D03*
X78115000Y-65357500D03*
X78115000Y-65857500D03*
X78115000Y-66357500D03*
X78115000Y-66857500D03*
D47*
X78415000Y-65607500D03*
D46*
X77865000Y-67357500D03*
D48*
X78115000Y-67357500D03*
D46*
X77865000Y-67857500D03*
D48*
X78115000Y-67857500D03*
D46*
X77865000Y-68357500D03*
D48*
X78115000Y-68357500D03*
D46*
X77865000Y-68857500D03*
D48*
X78115000Y-68857500D03*
D46*
X77865000Y-69357500D03*
D48*
X78115000Y-69357500D03*
D21*
X95800000Y-31187500D03*
X95800000Y-33012500D03*
D17*
X82710000Y-73147500D03*
X81750000Y-73147500D03*
D23*
X108350000Y-75575000D03*
X108350000Y-72625000D03*
D24*
X83590000Y-37540000D03*
X83590000Y-36520000D03*
D43*
X90080000Y-43920000D03*
X90080000Y-44880000D03*
X78300000Y-60020000D03*
X78300000Y-60980000D03*
D49*
X137176315Y-55576089D03*
X136226315Y-55576089D03*
X135276315Y-55576089D03*
X135276315Y-57851089D03*
X137176315Y-57851089D03*
D23*
X94600000Y-85375000D03*
X94600000Y-82425000D03*
D13*
X73500000Y-73575000D03*
X73500000Y-72025000D03*
D23*
X115450000Y-54400000D03*
X115450000Y-51450000D03*
D17*
X82410000Y-81847500D03*
X81450000Y-81847500D03*
D43*
X85200000Y-57820000D03*
X85200000Y-58780000D03*
D24*
X54000000Y-44735000D03*
X54000000Y-43715000D03*
D19*
X106100000Y-67325000D03*
X106100000Y-70275000D03*
D15*
X93800000Y-31610000D03*
X93800000Y-32630000D03*
D23*
X110800000Y-64775000D03*
X110800000Y-61825000D03*
D50*
X77925000Y-73700000D03*
X79475000Y-73700000D03*
D51*
X84190000Y-42000000D03*
X85210000Y-42000000D03*
D50*
X77525000Y-63100000D03*
X79075000Y-63100000D03*
D23*
X103700000Y-75575000D03*
X103700000Y-72625000D03*
X113000000Y-75575000D03*
X113000000Y-72625000D03*
D43*
X78490000Y-70920000D03*
X78490000Y-71880000D03*
D23*
X92300000Y-85375000D03*
X92300000Y-82425000D03*
X101500000Y-54350000D03*
X101500000Y-51400000D03*
D16*
X96020000Y-40800000D03*
X96980000Y-40800000D03*
D40*
X86930000Y-80622500D03*
X86930000Y-78797500D03*
D23*
X101400000Y-75575000D03*
X101400000Y-72625000D03*
X108450000Y-54375000D03*
X108450000Y-51425000D03*
D21*
X84930000Y-73697500D03*
X84930000Y-75522500D03*
D23*
X110700000Y-85350000D03*
X110700000Y-82400000D03*
D52*
X97010000Y-42800000D03*
X95990000Y-42800000D03*
D15*
X85490000Y-36520000D03*
X85490000Y-37540000D03*
D23*
X106050000Y-75575000D03*
X106050000Y-72625000D03*
D14*
X73570000Y-77750000D03*
X73570000Y-79300000D03*
D13*
X72000000Y-52475000D03*
X72000000Y-50925000D03*
D18*
X90514000Y-142084000D03*
X90012000Y-142084000D03*
X89510000Y-142084000D03*
X89008000Y-142084000D03*
X88506000Y-142084000D03*
X88004000Y-142084000D03*
X87502000Y-142084000D03*
X87000000Y-142084000D03*
X86498000Y-142084000D03*
X85996000Y-142084000D03*
X85494000Y-142084000D03*
X84992000Y-142084000D03*
X84490000Y-142084000D03*
X83988000Y-142084000D03*
X83486000Y-142084000D03*
X83486000Y-149916000D03*
X83988000Y-149916000D03*
X84490000Y-149916000D03*
X84992000Y-149916000D03*
X85494000Y-149916000D03*
X85996000Y-149916000D03*
X86498000Y-149916000D03*
X87000000Y-149916000D03*
X87502000Y-149916000D03*
X88004000Y-149916000D03*
X88506000Y-149916000D03*
X89008000Y-149916000D03*
X89510000Y-149916000D03*
X90012000Y-149916000D03*
X90514000Y-149916000D03*
D41*
X86775000Y-71800000D03*
X85225000Y-71800000D03*
D39*
X129840000Y-59450000D03*
X129840000Y-58490000D03*
D19*
X101500000Y-56475000D03*
X101500000Y-59425000D03*
D23*
X103800000Y-64775000D03*
X103800000Y-61825000D03*
D39*
X76300000Y-68080000D03*
X76300000Y-67120000D03*
D19*
X108400000Y-67325000D03*
X108400000Y-70275000D03*
D41*
X57250000Y-47800000D03*
X55700000Y-47800000D03*
D25*
X62792500Y-59800000D03*
X56292500Y-59800000D03*
D19*
X106100000Y-77700000D03*
X106100000Y-80650000D03*
D53*
X99486000Y-133916000D03*
X99988000Y-133916000D03*
X100490000Y-133916000D03*
X100992000Y-133916000D03*
X101494000Y-133916000D03*
X101996000Y-133916000D03*
X102498000Y-133916000D03*
X103000000Y-133916000D03*
X103502000Y-133916000D03*
X104004000Y-133916000D03*
X104506000Y-133916000D03*
X105008000Y-133916000D03*
X105510000Y-133916000D03*
X106012000Y-133916000D03*
X106514000Y-133916000D03*
X106514000Y-126084000D03*
X106012000Y-126084000D03*
X105510000Y-126084000D03*
X105008000Y-126084000D03*
X104506000Y-126084000D03*
X104004000Y-126084000D03*
X103502000Y-126084000D03*
X103000000Y-126084000D03*
X102498000Y-126084000D03*
X101996000Y-126084000D03*
X101494000Y-126084000D03*
X100992000Y-126084000D03*
X100490000Y-126084000D03*
X99988000Y-126084000D03*
X99486000Y-126084000D03*
D19*
X108400000Y-56525000D03*
X108400000Y-59475000D03*
D13*
X71500000Y-63075000D03*
X71500000Y-61525000D03*
D17*
X136656315Y-59856089D03*
X135696315Y-59856089D03*
D19*
X113000000Y-56525000D03*
X113000000Y-59475000D03*
D50*
X78025000Y-52400000D03*
X79575000Y-52400000D03*
D21*
X84950000Y-52287500D03*
X84950000Y-54112500D03*
D23*
X101490000Y-64775000D03*
X101490000Y-61825000D03*
D17*
X82420000Y-71157500D03*
X81460000Y-71157500D03*
D49*
X133676315Y-55696089D03*
X132726315Y-55696089D03*
X131776315Y-55696089D03*
X131776315Y-57971089D03*
X133676315Y-57971089D03*
D17*
X133680000Y-53400000D03*
X132720000Y-53400000D03*
D24*
X84100000Y-44410000D03*
X84100000Y-43390000D03*
D53*
X99486000Y-149916000D03*
X99988000Y-149916000D03*
X100490000Y-149916000D03*
X100992000Y-149916000D03*
X101494000Y-149916000D03*
X101996000Y-149916000D03*
X102498000Y-149916000D03*
X103000000Y-149916000D03*
X103502000Y-149916000D03*
X104004000Y-149916000D03*
X104506000Y-149916000D03*
X105008000Y-149916000D03*
X105510000Y-149916000D03*
X106012000Y-149916000D03*
X106514000Y-149916000D03*
X106514000Y-142084000D03*
X106012000Y-142084000D03*
X105510000Y-142084000D03*
X105008000Y-142084000D03*
X104506000Y-142084000D03*
X104004000Y-142084000D03*
X103502000Y-142084000D03*
X103000000Y-142084000D03*
X102498000Y-142084000D03*
X101996000Y-142084000D03*
X101494000Y-142084000D03*
X100992000Y-142084000D03*
X100490000Y-142084000D03*
X99988000Y-142084000D03*
X99486000Y-142084000D03*
D43*
X85400000Y-68320000D03*
X85400000Y-69280000D03*
D50*
X52050000Y-42525000D03*
X53600000Y-42525000D03*
D17*
X82730000Y-51737500D03*
X81770000Y-51737500D03*
D43*
X86100000Y-42920000D03*
X86100000Y-43880000D03*
D20*
X90160000Y-76610000D03*
X97770000Y-76610000D03*
D43*
X91793750Y-43720000D03*
X91793750Y-44680000D03*
D19*
X110700000Y-67325000D03*
X110700000Y-70275000D03*
D39*
X76300000Y-78980000D03*
X76300000Y-78020000D03*
D40*
X86950000Y-59212500D03*
X86950000Y-57387500D03*
D50*
X52050000Y-41050000D03*
X53600000Y-41050000D03*
D23*
X110700000Y-75550000D03*
X110700000Y-72600000D03*
D17*
X97080000Y-36800000D03*
X96120000Y-36800000D03*
D54*
X79837500Y-41700000D03*
X80337500Y-41700000D03*
X80837500Y-41700000D03*
X81337500Y-41700000D03*
X81337500Y-38600000D03*
X80837500Y-38600000D03*
X80337500Y-38600000D03*
X79837500Y-38600000D03*
D19*
X101480000Y-77700000D03*
X101480000Y-80650000D03*
D55*
X84500000Y-34600000D03*
X84500000Y-34100000D03*
X84500000Y-33600000D03*
X84500000Y-33100000D03*
X84500000Y-32600000D03*
X80275000Y-32600000D03*
X80275000Y-33100000D03*
X80275000Y-33600000D03*
X80275000Y-34100000D03*
X80275000Y-34600000D03*
D19*
X113000000Y-77700000D03*
X113000000Y-80650000D03*
D56*
X115900000Y-28530000D03*
X112600000Y-28530000D03*
D45*
X83025000Y-58637500D03*
D46*
X83275000Y-58637500D03*
D45*
X83025000Y-58137500D03*
D46*
X83275000Y-58137500D03*
D45*
X83025000Y-57637500D03*
D46*
X83275000Y-57637500D03*
D45*
X83025000Y-57137500D03*
D46*
X83275000Y-57137500D03*
D45*
X83025000Y-56637500D03*
D46*
X83275000Y-56637500D03*
D47*
X82725000Y-54887500D03*
D45*
X83025000Y-53637500D03*
X83025000Y-54137500D03*
X83025000Y-54637500D03*
X83025000Y-55137500D03*
X83025000Y-55637500D03*
X83025000Y-56137500D03*
D46*
X83275000Y-53637500D03*
X83275000Y-54137500D03*
X83275000Y-54637500D03*
X83275000Y-55137500D03*
X83275000Y-55637500D03*
X83275000Y-56137500D03*
X77875000Y-53637500D03*
X77875000Y-54137500D03*
X77875000Y-54637500D03*
X77875000Y-55137500D03*
X77875000Y-55637500D03*
X77875000Y-56137500D03*
D48*
X78125000Y-53637500D03*
X78125000Y-54137500D03*
X78125000Y-54637500D03*
X78125000Y-55137500D03*
X78125000Y-55637500D03*
X78125000Y-56137500D03*
D47*
X78425000Y-54887500D03*
D46*
X77875000Y-56637500D03*
D48*
X78125000Y-56637500D03*
D46*
X77875000Y-57137500D03*
D48*
X78125000Y-57137500D03*
D46*
X77875000Y-57637500D03*
D48*
X78125000Y-57637500D03*
D46*
X77875000Y-58137500D03*
D48*
X78125000Y-58137500D03*
D46*
X77875000Y-58637500D03*
D48*
X78125000Y-58637500D03*
D43*
X85100000Y-79020000D03*
X85100000Y-79980000D03*
D13*
X74970000Y-73575000D03*
X74970000Y-72025000D03*
D45*
X83005000Y-80047500D03*
D46*
X83255000Y-80047500D03*
D45*
X83005000Y-79547500D03*
D46*
X83255000Y-79547500D03*
D45*
X83005000Y-79047500D03*
D46*
X83255000Y-79047500D03*
D45*
X83005000Y-78547500D03*
D46*
X83255000Y-78547500D03*
D45*
X83005000Y-78047500D03*
D46*
X83255000Y-78047500D03*
D47*
X82705000Y-76297500D03*
D45*
X83005000Y-75047500D03*
X83005000Y-75547500D03*
X83005000Y-76047500D03*
X83005000Y-76547500D03*
X83005000Y-77047500D03*
X83005000Y-77547500D03*
D46*
X83255000Y-75047500D03*
X83255000Y-75547500D03*
X83255000Y-76047500D03*
X83255000Y-76547500D03*
X83255000Y-77047500D03*
X83255000Y-77547500D03*
X77855000Y-75047500D03*
X77855000Y-75547500D03*
X77855000Y-76047500D03*
X77855000Y-76547500D03*
X77855000Y-77047500D03*
X77855000Y-77547500D03*
D48*
X78105000Y-75047500D03*
X78105000Y-75547500D03*
X78105000Y-76047500D03*
X78105000Y-76547500D03*
X78105000Y-77047500D03*
X78105000Y-77547500D03*
D47*
X78405000Y-76297500D03*
D46*
X77855000Y-78047500D03*
D48*
X78105000Y-78047500D03*
D46*
X77855000Y-78547500D03*
D48*
X78105000Y-78547500D03*
D46*
X77855000Y-79047500D03*
D48*
X78105000Y-79047500D03*
D46*
X77855000Y-79547500D03*
D48*
X78105000Y-79547500D03*
D46*
X77855000Y-80047500D03*
D48*
X78105000Y-80047500D03*
D23*
X103800000Y-54375000D03*
X103800000Y-51425000D03*
D13*
X75000000Y-52475000D03*
X75000000Y-50925000D03*
D14*
X75100000Y-68300000D03*
X75100000Y-69850000D03*
D13*
X74500000Y-63075000D03*
X74500000Y-61525000D03*
D14*
X72070000Y-68310000D03*
X72070000Y-69860000D03*
D13*
X73500000Y-52475000D03*
X73500000Y-50925000D03*
D19*
X110700000Y-56525000D03*
X110700000Y-59475000D03*
D13*
X76000000Y-63075000D03*
X76000000Y-61525000D03*
D41*
X86775000Y-61100000D03*
X85225000Y-61100000D03*
D19*
X110700000Y-77700000D03*
X110700000Y-80650000D03*
D23*
X117750000Y-54375000D03*
X117750000Y-51425000D03*
D19*
X101490000Y-67350000D03*
X101490000Y-70300000D03*
D23*
X106150000Y-54375000D03*
X106150000Y-51425000D03*
M02*
