G04 #@! TF.GenerationSoftware,KiCad,Pcbnew,9.0.1*
G04 #@! TF.CreationDate,2025-08-19T15:38:31-04:00*
G04 #@! TF.ProjectId,nerdqaxe++,6e657264-7161-4786-952b-2b2e6b696361,rev?*
G04 #@! TF.SameCoordinates,Original*
G04 #@! TF.FileFunction,Soldermask,Top*
G04 #@! TF.FilePolarity,Negative*
%FSLAX46Y46*%
G04 Gerber Fmt 4.6, Leading zero omitted, Abs format (unit mm)*
G04 Created by KiCad (PCBNEW 9.0.1) date 2025-08-19 15:38:31*
%MOMM*%
%LPD*%
G01*
G04 APERTURE LIST*
G04 Aperture macros list*
%AMRoundRect*
0 Rectangle with rounded corners*
0 $1 Rounding radius*
0 $2 $3 $4 $5 $6 $7 $8 $9 X,Y pos of 4 corners*
0 Add a 4 corners polygon primitive as box body*
4,1,4,$2,$3,$4,$5,$6,$7,$8,$9,$2,$3,0*
0 Add four circle primitives for the rounded corners*
1,1,$1+$1,$2,$3*
1,1,$1+$1,$4,$5*
1,1,$1+$1,$6,$7*
1,1,$1+$1,$8,$9*
0 Add four rect primitives between the rounded corners*
20,1,$1+$1,$2,$3,$4,$5,0*
20,1,$1+$1,$4,$5,$6,$7,0*
20,1,$1+$1,$6,$7,$8,$9,0*
20,1,$1+$1,$8,$9,$2,$3,0*%
G04 Aperture macros list end*
%ADD10C,0.120000*%
%ADD11RoundRect,0.225000X0.250000X-0.225000X0.250000X0.225000X-0.250000X0.225000X-0.250000X-0.225000X0*%
%ADD12RoundRect,0.225000X-0.250000X0.225000X-0.250000X-0.225000X0.250000X-0.225000X0.250000X0.225000X0*%
%ADD13RoundRect,0.135000X-0.185000X0.135000X-0.185000X-0.135000X0.185000X-0.135000X0.185000X0.135000X0*%
%ADD14RoundRect,0.140000X-0.140000X-0.170000X0.140000X-0.170000X0.140000X0.170000X-0.140000X0.170000X0*%
%ADD15RoundRect,0.140000X0.140000X0.170000X-0.140000X0.170000X-0.140000X-0.170000X0.140000X-0.170000X0*%
%ADD16RoundRect,0.055250X-0.055250X0.340750X-0.055250X-0.340750X0.055250X-0.340750X0.055250X0.340750X0*%
%ADD17R,3.300000X2.800000*%
%ADD18RoundRect,0.140000X-0.170000X0.140000X-0.170000X-0.140000X0.170000X-0.140000X0.170000X0.140000X0*%
%ADD19C,4.500000*%
%ADD20RoundRect,0.250000X-0.262500X-0.450000X0.262500X-0.450000X0.262500X0.450000X-0.262500X0.450000X0*%
%ADD21RoundRect,0.250000X-0.650000X0.325000X-0.650000X-0.325000X0.650000X-0.325000X0.650000X0.325000X0*%
%ADD22RoundRect,0.135000X0.185000X-0.135000X0.185000X0.135000X-0.185000X0.135000X-0.185000X-0.135000X0*%
%ADD23RoundRect,0.250000X1.500000X1.000000X-1.500000X1.000000X-1.500000X-1.000000X1.500000X-1.000000X0*%
%ADD24C,0.800000*%
%ADD25C,6.400000*%
%ADD26RoundRect,0.062500X0.062500X-0.375000X0.062500X0.375000X-0.062500X0.375000X-0.062500X-0.375000X0*%
%ADD27RoundRect,0.062500X0.375000X-0.062500X0.375000X0.062500X-0.375000X0.062500X-0.375000X-0.062500X0*%
%ADD28R,4.150000X4.150000*%
%ADD29RoundRect,0.050000X-0.225000X0.237500X-0.225000X-0.237500X0.225000X-0.237500X0.225000X0.237500X0*%
%ADD30RoundRect,0.050000X-0.225000X0.075000X-0.225000X-0.075000X0.225000X-0.075000X0.225000X0.075000X0*%
%ADD31RoundRect,0.050000X0.400000X1.400000X-0.400000X1.400000X-0.400000X-1.400000X0.400000X-1.400000X0*%
%ADD32RoundRect,0.140000X0.170000X-0.140000X0.170000X0.140000X-0.170000X0.140000X-0.170000X-0.140000X0*%
%ADD33C,1.700000*%
%ADD34RoundRect,0.250000X0.650000X-0.325000X0.650000X0.325000X-0.650000X0.325000X-0.650000X-0.325000X0*%
%ADD35RoundRect,0.250000X0.262500X0.450000X-0.262500X0.450000X-0.262500X-0.450000X0.262500X-0.450000X0*%
%ADD36RoundRect,0.225000X0.225000X0.250000X-0.225000X0.250000X-0.225000X-0.250000X0.225000X-0.250000X0*%
%ADD37RoundRect,0.250000X0.900000X-1.000000X0.900000X1.000000X-0.900000X1.000000X-0.900000X-1.000000X0*%
%ADD38C,3.000000*%
%ADD39C,2.000000*%
%ADD40RoundRect,0.127000X0.373000X0.023000X-0.373000X0.023000X-0.373000X-0.023000X0.373000X-0.023000X0*%
%ADD41R,0.500000X0.300000*%
%ADD42RoundRect,0.127000X0.078000X1.273000X-0.078000X1.273000X-0.078000X-1.273000X0.078000X-1.273000X0*%
%ADD43RoundRect,0.127000X-0.373000X-0.023000X0.373000X-0.023000X0.373000X0.023000X-0.373000X0.023000X0*%
%ADD44R,0.410000X6.300000*%
%ADD45R,3.400000X5.639000*%
%ADD46RoundRect,0.150000X-0.150000X0.512500X-0.150000X-0.512500X0.150000X-0.512500X0.150000X0.512500X0*%
%ADD47C,1.100000*%
%ADD48R,2.030000X1.730000*%
%ADD49O,2.030000X1.730000*%
%ADD50RoundRect,0.225000X-0.225000X-0.250000X0.225000X-0.250000X0.225000X0.250000X-0.225000X0.250000X0*%
%ADD51RoundRect,0.135000X-0.135000X-0.185000X0.135000X-0.185000X0.135000X0.185000X-0.135000X0.185000X0*%
%ADD52RoundRect,0.135000X0.135000X0.185000X-0.135000X0.185000X-0.135000X-0.185000X0.135000X-0.185000X0*%
%ADD53RoundRect,0.055250X0.055250X-0.340750X0.055250X0.340750X-0.055250X0.340750X-0.055250X-0.340750X0*%
%ADD54R,0.599999X0.240000*%
%ADD55R,0.240000X0.599999*%
%ADD56C,0.499999*%
%ADD57R,2.000001X1.000000*%
%ADD58R,0.300000X0.800000*%
%ADD59RoundRect,0.087500X0.725000X0.087500X-0.725000X0.087500X-0.725000X-0.087500X0.725000X-0.087500X0*%
%ADD60RoundRect,0.225000X0.225000X0.375000X-0.225000X0.375000X-0.225000X-0.375000X0.225000X-0.375000X0*%
G04 APERTURE END LIST*
D10*
X83210000Y-128675000D02*
X84650000Y-128675000D01*
X84650000Y-126920000D01*
X83210000Y-126920000D01*
X83210000Y-128675000D01*
G36*
X83210000Y-128675000D02*
G01*
X84650000Y-128675000D01*
X84650000Y-126920000D01*
X83210000Y-126920000D01*
X83210000Y-128675000D01*
G37*
X83210000Y-130890000D02*
X84650000Y-130890000D01*
X84650000Y-129110000D01*
X83210000Y-129110000D01*
X83210000Y-130890000D01*
G36*
X83210000Y-130890000D02*
G01*
X84650000Y-130890000D01*
X84650000Y-129110000D01*
X83210000Y-129110000D01*
X83210000Y-130890000D01*
G37*
X83210000Y-133075000D02*
X84650000Y-133075000D01*
X84650000Y-131320000D01*
X83210000Y-131320000D01*
X83210000Y-133075000D01*
G36*
X83210000Y-133075000D02*
G01*
X84650000Y-133075000D01*
X84650000Y-131320000D01*
X83210000Y-131320000D01*
X83210000Y-133075000D01*
G37*
X85175000Y-128670000D02*
X86615000Y-128670000D01*
X86615000Y-126915000D01*
X85175000Y-126915000D01*
X85175000Y-128670000D01*
G36*
X85175000Y-128670000D02*
G01*
X86615000Y-128670000D01*
X86615000Y-126915000D01*
X85175000Y-126915000D01*
X85175000Y-128670000D01*
G37*
X85185000Y-130880000D02*
X86625000Y-130880000D01*
X86625000Y-129100000D01*
X85185000Y-129100000D01*
X85185000Y-130880000D01*
G36*
X85185000Y-130880000D02*
G01*
X86625000Y-130880000D01*
X86625000Y-129100000D01*
X85185000Y-129100000D01*
X85185000Y-130880000D01*
G37*
X85185000Y-133065000D02*
X86625000Y-133065000D01*
X86625000Y-131310000D01*
X85185000Y-131310000D01*
X85185000Y-133065000D01*
G36*
X85185000Y-133065000D02*
G01*
X86625000Y-133065000D01*
X86625000Y-131310000D01*
X85185000Y-131310000D01*
X85185000Y-133065000D01*
G37*
X87135000Y-128680000D02*
X88575000Y-128680000D01*
X88575000Y-126925000D01*
X87135000Y-126925000D01*
X87135000Y-128680000D01*
G36*
X87135000Y-128680000D02*
G01*
X88575000Y-128680000D01*
X88575000Y-126925000D01*
X87135000Y-126925000D01*
X87135000Y-128680000D01*
G37*
X87135000Y-130890000D02*
X88575000Y-130890000D01*
X88575000Y-129110000D01*
X87135000Y-129110000D01*
X87135000Y-130890000D01*
G36*
X87135000Y-130890000D02*
G01*
X88575000Y-130890000D01*
X88575000Y-129110000D01*
X87135000Y-129110000D01*
X87135000Y-130890000D01*
G37*
X87135000Y-133077500D02*
X88575000Y-133077500D01*
X88575000Y-131322500D01*
X87135000Y-131322500D01*
X87135000Y-133077500D01*
G36*
X87135000Y-133077500D02*
G01*
X88575000Y-133077500D01*
X88575000Y-131322500D01*
X87135000Y-131322500D01*
X87135000Y-133077500D01*
G37*
X89090000Y-128677500D02*
X90795000Y-128677500D01*
X90795000Y-126922500D01*
X89090000Y-126922500D01*
X89090000Y-128677500D01*
G36*
X89090000Y-128677500D02*
G01*
X90795000Y-128677500D01*
X90795000Y-126922500D01*
X89090000Y-126922500D01*
X89090000Y-128677500D01*
G37*
X89090000Y-130880000D02*
X90790000Y-130880000D01*
X90790000Y-129100000D01*
X89090000Y-129100000D01*
X89090000Y-130880000D01*
G36*
X89090000Y-130880000D02*
G01*
X90790000Y-130880000D01*
X90790000Y-129100000D01*
X89090000Y-129100000D01*
X89090000Y-130880000D01*
G37*
X89095000Y-133062500D02*
X90790000Y-133062500D01*
X90790000Y-131307500D01*
X89095000Y-131307500D01*
X89095000Y-133062500D01*
G36*
X89095000Y-133062500D02*
G01*
X90790000Y-133062500D01*
X90790000Y-131307500D01*
X89095000Y-131307500D01*
X89095000Y-133062500D01*
G37*
X83210000Y-144675000D02*
X84650000Y-144675000D01*
X84650000Y-142920000D01*
X83210000Y-142920000D01*
X83210000Y-144675000D01*
G36*
X83210000Y-144675000D02*
G01*
X84650000Y-144675000D01*
X84650000Y-142920000D01*
X83210000Y-142920000D01*
X83210000Y-144675000D01*
G37*
X83210000Y-146890000D02*
X84650000Y-146890000D01*
X84650000Y-145110000D01*
X83210000Y-145110000D01*
X83210000Y-146890000D01*
G36*
X83210000Y-146890000D02*
G01*
X84650000Y-146890000D01*
X84650000Y-145110000D01*
X83210000Y-145110000D01*
X83210000Y-146890000D01*
G37*
X83210000Y-149075000D02*
X84650000Y-149075000D01*
X84650000Y-147320000D01*
X83210000Y-147320000D01*
X83210000Y-149075000D01*
G36*
X83210000Y-149075000D02*
G01*
X84650000Y-149075000D01*
X84650000Y-147320000D01*
X83210000Y-147320000D01*
X83210000Y-149075000D01*
G37*
X85175000Y-144670000D02*
X86615000Y-144670000D01*
X86615000Y-142915000D01*
X85175000Y-142915000D01*
X85175000Y-144670000D01*
G36*
X85175000Y-144670000D02*
G01*
X86615000Y-144670000D01*
X86615000Y-142915000D01*
X85175000Y-142915000D01*
X85175000Y-144670000D01*
G37*
X85185000Y-146880000D02*
X86625000Y-146880000D01*
X86625000Y-145100000D01*
X85185000Y-145100000D01*
X85185000Y-146880000D01*
G36*
X85185000Y-146880000D02*
G01*
X86625000Y-146880000D01*
X86625000Y-145100000D01*
X85185000Y-145100000D01*
X85185000Y-146880000D01*
G37*
X85185000Y-149065000D02*
X86625000Y-149065000D01*
X86625000Y-147310000D01*
X85185000Y-147310000D01*
X85185000Y-149065000D01*
G36*
X85185000Y-149065000D02*
G01*
X86625000Y-149065000D01*
X86625000Y-147310000D01*
X85185000Y-147310000D01*
X85185000Y-149065000D01*
G37*
X87135000Y-144680000D02*
X88575000Y-144680000D01*
X88575000Y-142925000D01*
X87135000Y-142925000D01*
X87135000Y-144680000D01*
G36*
X87135000Y-144680000D02*
G01*
X88575000Y-144680000D01*
X88575000Y-142925000D01*
X87135000Y-142925000D01*
X87135000Y-144680000D01*
G37*
X87135000Y-146890000D02*
X88575000Y-146890000D01*
X88575000Y-145110000D01*
X87135000Y-145110000D01*
X87135000Y-146890000D01*
G36*
X87135000Y-146890000D02*
G01*
X88575000Y-146890000D01*
X88575000Y-145110000D01*
X87135000Y-145110000D01*
X87135000Y-146890000D01*
G37*
X87135000Y-149077500D02*
X88575000Y-149077500D01*
X88575000Y-147322500D01*
X87135000Y-147322500D01*
X87135000Y-149077500D01*
G36*
X87135000Y-149077500D02*
G01*
X88575000Y-149077500D01*
X88575000Y-147322500D01*
X87135000Y-147322500D01*
X87135000Y-149077500D01*
G37*
X89090000Y-144677500D02*
X90795000Y-144677500D01*
X90795000Y-142922500D01*
X89090000Y-142922500D01*
X89090000Y-144677500D01*
G36*
X89090000Y-144677500D02*
G01*
X90795000Y-144677500D01*
X90795000Y-142922500D01*
X89090000Y-142922500D01*
X89090000Y-144677500D01*
G37*
X89090000Y-146880000D02*
X90790000Y-146880000D01*
X90790000Y-145100000D01*
X89090000Y-145100000D01*
X89090000Y-146880000D01*
G36*
X89090000Y-146880000D02*
G01*
X90790000Y-146880000D01*
X90790000Y-145100000D01*
X89090000Y-145100000D01*
X89090000Y-146880000D01*
G37*
X89095000Y-149062500D02*
X90790000Y-149062500D01*
X90790000Y-147307500D01*
X89095000Y-147307500D01*
X89095000Y-149062500D01*
G36*
X89095000Y-149062500D02*
G01*
X90790000Y-149062500D01*
X90790000Y-147307500D01*
X89095000Y-147307500D01*
X89095000Y-149062500D01*
G37*
X100905000Y-126937500D02*
X99210000Y-126937500D01*
X99210000Y-128692500D01*
X100905000Y-128692500D01*
X100905000Y-126937500D01*
G36*
X100905000Y-126937500D02*
G01*
X99210000Y-126937500D01*
X99210000Y-128692500D01*
X100905000Y-128692500D01*
X100905000Y-126937500D01*
G37*
X100910000Y-129120000D02*
X99210000Y-129120000D01*
X99210000Y-130900000D01*
X100910000Y-130900000D01*
X100910000Y-129120000D01*
G36*
X100910000Y-129120000D02*
G01*
X99210000Y-129120000D01*
X99210000Y-130900000D01*
X100910000Y-130900000D01*
X100910000Y-129120000D01*
G37*
X100910000Y-131322500D02*
X99205000Y-131322500D01*
X99205000Y-133077500D01*
X100910000Y-133077500D01*
X100910000Y-131322500D01*
G36*
X100910000Y-131322500D02*
G01*
X99205000Y-131322500D01*
X99205000Y-133077500D01*
X100910000Y-133077500D01*
X100910000Y-131322500D01*
G37*
X102865000Y-126922500D02*
X101425000Y-126922500D01*
X101425000Y-128677500D01*
X102865000Y-128677500D01*
X102865000Y-126922500D01*
G36*
X102865000Y-126922500D02*
G01*
X101425000Y-126922500D01*
X101425000Y-128677500D01*
X102865000Y-128677500D01*
X102865000Y-126922500D01*
G37*
X102865000Y-129110000D02*
X101425000Y-129110000D01*
X101425000Y-130890000D01*
X102865000Y-130890000D01*
X102865000Y-129110000D01*
G36*
X102865000Y-129110000D02*
G01*
X101425000Y-129110000D01*
X101425000Y-130890000D01*
X102865000Y-130890000D01*
X102865000Y-129110000D01*
G37*
X102865000Y-131320000D02*
X101425000Y-131320000D01*
X101425000Y-133075000D01*
X102865000Y-133075000D01*
X102865000Y-131320000D01*
G36*
X102865000Y-131320000D02*
G01*
X101425000Y-131320000D01*
X101425000Y-133075000D01*
X102865000Y-133075000D01*
X102865000Y-131320000D01*
G37*
X104815000Y-126935000D02*
X103375000Y-126935000D01*
X103375000Y-128690000D01*
X104815000Y-128690000D01*
X104815000Y-126935000D01*
G36*
X104815000Y-126935000D02*
G01*
X103375000Y-126935000D01*
X103375000Y-128690000D01*
X104815000Y-128690000D01*
X104815000Y-126935000D01*
G37*
X104815000Y-129120000D02*
X103375000Y-129120000D01*
X103375000Y-130900000D01*
X104815000Y-130900000D01*
X104815000Y-129120000D01*
G36*
X104815000Y-129120000D02*
G01*
X103375000Y-129120000D01*
X103375000Y-130900000D01*
X104815000Y-130900000D01*
X104815000Y-129120000D01*
G37*
X104825000Y-131330000D02*
X103385000Y-131330000D01*
X103385000Y-133085000D01*
X104825000Y-133085000D01*
X104825000Y-131330000D01*
G36*
X104825000Y-131330000D02*
G01*
X103385000Y-131330000D01*
X103385000Y-133085000D01*
X104825000Y-133085000D01*
X104825000Y-131330000D01*
G37*
X106790000Y-126925000D02*
X105350000Y-126925000D01*
X105350000Y-128680000D01*
X106790000Y-128680000D01*
X106790000Y-126925000D01*
G36*
X106790000Y-126925000D02*
G01*
X105350000Y-126925000D01*
X105350000Y-128680000D01*
X106790000Y-128680000D01*
X106790000Y-126925000D01*
G37*
X106790000Y-129110000D02*
X105350000Y-129110000D01*
X105350000Y-130890000D01*
X106790000Y-130890000D01*
X106790000Y-129110000D01*
G36*
X106790000Y-129110000D02*
G01*
X105350000Y-129110000D01*
X105350000Y-130890000D01*
X106790000Y-130890000D01*
X106790000Y-129110000D01*
G37*
X106790000Y-131325000D02*
X105350000Y-131325000D01*
X105350000Y-133080000D01*
X106790000Y-133080000D01*
X106790000Y-131325000D01*
G36*
X106790000Y-131325000D02*
G01*
X105350000Y-131325000D01*
X105350000Y-133080000D01*
X106790000Y-133080000D01*
X106790000Y-131325000D01*
G37*
X100905000Y-142937500D02*
X99210000Y-142937500D01*
X99210000Y-144692500D01*
X100905000Y-144692500D01*
X100905000Y-142937500D01*
G36*
X100905000Y-142937500D02*
G01*
X99210000Y-142937500D01*
X99210000Y-144692500D01*
X100905000Y-144692500D01*
X100905000Y-142937500D01*
G37*
X100910000Y-145120000D02*
X99210000Y-145120000D01*
X99210000Y-146900000D01*
X100910000Y-146900000D01*
X100910000Y-145120000D01*
G36*
X100910000Y-145120000D02*
G01*
X99210000Y-145120000D01*
X99210000Y-146900000D01*
X100910000Y-146900000D01*
X100910000Y-145120000D01*
G37*
X100910000Y-147322500D02*
X99205000Y-147322500D01*
X99205000Y-149077500D01*
X100910000Y-149077500D01*
X100910000Y-147322500D01*
G36*
X100910000Y-147322500D02*
G01*
X99205000Y-147322500D01*
X99205000Y-149077500D01*
X100910000Y-149077500D01*
X100910000Y-147322500D01*
G37*
X102865000Y-142922500D02*
X101425000Y-142922500D01*
X101425000Y-144677500D01*
X102865000Y-144677500D01*
X102865000Y-142922500D01*
G36*
X102865000Y-142922500D02*
G01*
X101425000Y-142922500D01*
X101425000Y-144677500D01*
X102865000Y-144677500D01*
X102865000Y-142922500D01*
G37*
X102865000Y-145110000D02*
X101425000Y-145110000D01*
X101425000Y-146890000D01*
X102865000Y-146890000D01*
X102865000Y-145110000D01*
G36*
X102865000Y-145110000D02*
G01*
X101425000Y-145110000D01*
X101425000Y-146890000D01*
X102865000Y-146890000D01*
X102865000Y-145110000D01*
G37*
X102865000Y-147320000D02*
X101425000Y-147320000D01*
X101425000Y-149075000D01*
X102865000Y-149075000D01*
X102865000Y-147320000D01*
G36*
X102865000Y-147320000D02*
G01*
X101425000Y-147320000D01*
X101425000Y-149075000D01*
X102865000Y-149075000D01*
X102865000Y-147320000D01*
G37*
X104815000Y-142935000D02*
X103375000Y-142935000D01*
X103375000Y-144690000D01*
X104815000Y-144690000D01*
X104815000Y-142935000D01*
G36*
X104815000Y-142935000D02*
G01*
X103375000Y-142935000D01*
X103375000Y-144690000D01*
X104815000Y-144690000D01*
X104815000Y-142935000D01*
G37*
X104815000Y-145120000D02*
X103375000Y-145120000D01*
X103375000Y-146900000D01*
X104815000Y-146900000D01*
X104815000Y-145120000D01*
G36*
X104815000Y-145120000D02*
G01*
X103375000Y-145120000D01*
X103375000Y-146900000D01*
X104815000Y-146900000D01*
X104815000Y-145120000D01*
G37*
X104825000Y-147330000D02*
X103385000Y-147330000D01*
X103385000Y-149085000D01*
X104825000Y-149085000D01*
X104825000Y-147330000D01*
G36*
X104825000Y-147330000D02*
G01*
X103385000Y-147330000D01*
X103385000Y-149085000D01*
X104825000Y-149085000D01*
X104825000Y-147330000D01*
G37*
X106790000Y-142925000D02*
X105350000Y-142925000D01*
X105350000Y-144680000D01*
X106790000Y-144680000D01*
X106790000Y-142925000D01*
G36*
X106790000Y-142925000D02*
G01*
X105350000Y-142925000D01*
X105350000Y-144680000D01*
X106790000Y-144680000D01*
X106790000Y-142925000D01*
G37*
X106790000Y-145110000D02*
X105350000Y-145110000D01*
X105350000Y-146890000D01*
X106790000Y-146890000D01*
X106790000Y-145110000D01*
G36*
X106790000Y-145110000D02*
G01*
X105350000Y-145110000D01*
X105350000Y-146890000D01*
X106790000Y-146890000D01*
X106790000Y-145110000D01*
G37*
X106790000Y-147325000D02*
X105350000Y-147325000D01*
X105350000Y-149080000D01*
X106790000Y-149080000D01*
X106790000Y-147325000D01*
G36*
X106790000Y-147325000D02*
G01*
X105350000Y-147325000D01*
X105350000Y-149080000D01*
X106790000Y-149080000D01*
X106790000Y-147325000D01*
G37*
D11*
X72000000Y-73575000D03*
X72000000Y-72025000D03*
D12*
X73570000Y-68310000D03*
X73570000Y-69860000D03*
D13*
X81250000Y-29690000D03*
X81250000Y-30710000D03*
D14*
X96020000Y-38800000D03*
X96980000Y-38800000D03*
D15*
X133130000Y-59400000D03*
X132170000Y-59400000D03*
D16*
X90500000Y-126084000D03*
X90000000Y-126084000D03*
X89500000Y-126084000D03*
X89000000Y-126084000D03*
X88500000Y-126084000D03*
X88000000Y-126084000D03*
X87500000Y-126084000D03*
X87000000Y-126084000D03*
X86500000Y-126084000D03*
X86000000Y-126084000D03*
X85500000Y-126084000D03*
X85000000Y-126084000D03*
X84500000Y-126084000D03*
X84000000Y-126084000D03*
X83500000Y-126084000D03*
X83500000Y-133916000D03*
X84000000Y-133916000D03*
X84500000Y-133916000D03*
X85000000Y-133916000D03*
X85500000Y-133916000D03*
X86000000Y-133916000D03*
X86500000Y-133916000D03*
X87000000Y-133916000D03*
X87500000Y-133916000D03*
X88000000Y-133916000D03*
X88500000Y-133916000D03*
X89000000Y-133916000D03*
X89500000Y-133916000D03*
X90000000Y-133916000D03*
X90500000Y-133916000D03*
D13*
X80250000Y-29690000D03*
X80250000Y-30710000D03*
X92400000Y-33290000D03*
X92400000Y-34310000D03*
D17*
X90180000Y-55200000D03*
X97790000Y-55200000D03*
D12*
X74800000Y-57525000D03*
X74800000Y-59075000D03*
D18*
X124250000Y-57020000D03*
X124250000Y-57980000D03*
D19*
X132500000Y-100500000D03*
D20*
X82587500Y-62800000D03*
X84412500Y-62800000D03*
D12*
X75100000Y-77750000D03*
X75100000Y-79300000D03*
D21*
X103800000Y-56525000D03*
X103800000Y-59475000D03*
D22*
X89900000Y-32560000D03*
X89900000Y-31540000D03*
D15*
X137180000Y-53500000D03*
X136220000Y-53500000D03*
D23*
X62750000Y-69250000D03*
X56250000Y-69250000D03*
D22*
X93500000Y-44060000D03*
X93500000Y-43040000D03*
D24*
X133600000Y-78000000D03*
X134302944Y-76302944D03*
X134302944Y-79697056D03*
X136000000Y-75600000D03*
D25*
X136000000Y-78000000D03*
D24*
X136000000Y-80400000D03*
X137697056Y-76302944D03*
X137697056Y-79697056D03*
X138400000Y-78000000D03*
D11*
X76470000Y-73575000D03*
X76470000Y-72025000D03*
D26*
X87843750Y-41375000D03*
X88343750Y-41375000D03*
X88843750Y-41375000D03*
X89343750Y-41375000D03*
X89843750Y-41375000D03*
X90343750Y-41375000D03*
X90843750Y-41375000D03*
X91343750Y-41375000D03*
X91843750Y-41375000D03*
X92343750Y-41375000D03*
D27*
X93031250Y-40687500D03*
X93031250Y-40187500D03*
X93031250Y-39687500D03*
X93031250Y-39187500D03*
X93031250Y-38687500D03*
X93031250Y-38187500D03*
X93031250Y-37687500D03*
X93031250Y-37187500D03*
X93031250Y-36687500D03*
X93031250Y-36187500D03*
D26*
X92343750Y-35500000D03*
X91843750Y-35500000D03*
X91343750Y-35500000D03*
X90843750Y-35500000D03*
X90343750Y-35500000D03*
X89843750Y-35500000D03*
X89343750Y-35500000D03*
X88843750Y-35500000D03*
X88343750Y-35500000D03*
X87843750Y-35500000D03*
D27*
X87156250Y-36187500D03*
X87156250Y-36687500D03*
X87156250Y-37187500D03*
X87156250Y-37687500D03*
X87156250Y-38187500D03*
X87156250Y-38687500D03*
X87156250Y-39187500D03*
X87156250Y-39687500D03*
X87156250Y-40187500D03*
X87156250Y-40687500D03*
D28*
X90093750Y-38437500D03*
D21*
X106100000Y-56525000D03*
X106100000Y-59475000D03*
D12*
X73325000Y-57525000D03*
X73325000Y-59075000D03*
D14*
X80420000Y-36900000D03*
X81380000Y-36900000D03*
D29*
X57329500Y-46387501D03*
D30*
X57329500Y-45750126D03*
X57329500Y-45250000D03*
X57329500Y-44749874D03*
D29*
X57329500Y-44112499D03*
X55170500Y-44112499D03*
D30*
X55170500Y-44749874D03*
X55170500Y-45250000D03*
X55170500Y-45750126D03*
D29*
X55170500Y-46387501D03*
D31*
X56250000Y-45250000D03*
D21*
X103800000Y-77700000D03*
X103800000Y-80650000D03*
D32*
X88900000Y-32530000D03*
X88900000Y-31570000D03*
D12*
X72070000Y-77750000D03*
X72070000Y-79300000D03*
D11*
X76500000Y-52475000D03*
X76500000Y-50925000D03*
D14*
X83820000Y-30850000D03*
X84780000Y-30850000D03*
D22*
X88550000Y-44260000D03*
X88550000Y-43240000D03*
D15*
X81380000Y-62900000D03*
X80420000Y-62900000D03*
D33*
X88310000Y-25250000D03*
X90850000Y-25250000D03*
X93390000Y-25250000D03*
X95930000Y-25250000D03*
X98470000Y-25250000D03*
X101010000Y-25250000D03*
X103550000Y-25250000D03*
X106090000Y-25250000D03*
X108630000Y-25250000D03*
X111170000Y-25250000D03*
X113710000Y-25250000D03*
X116250000Y-25250000D03*
X116250000Y-48170000D03*
X113710000Y-48170000D03*
X111170000Y-48170000D03*
X108630000Y-48170000D03*
X106090000Y-48170000D03*
X103550000Y-48170000D03*
X101010000Y-48170000D03*
X98470000Y-48170000D03*
X95930000Y-48170000D03*
X93390000Y-48170000D03*
X90850000Y-48170000D03*
X88310000Y-48170000D03*
D34*
X106150000Y-64775000D03*
X106150000Y-61825000D03*
D11*
X73030000Y-63085000D03*
X73030000Y-61535000D03*
D35*
X87412500Y-67900000D03*
X85587500Y-67900000D03*
D13*
X97700000Y-31590000D03*
X97700000Y-32610000D03*
D36*
X57250000Y-49275000D03*
X55700000Y-49275000D03*
D24*
X52600000Y-28000000D03*
X53302944Y-26302944D03*
X53302944Y-29697056D03*
X55000000Y-25600000D03*
D25*
X55000000Y-28000000D03*
D24*
X55000000Y-30400000D03*
X56697056Y-26302944D03*
X56697056Y-29697056D03*
X57400000Y-28000000D03*
D21*
X103800000Y-67325000D03*
X103800000Y-70275000D03*
D37*
X69450000Y-48050000D03*
X69450000Y-43750000D03*
D38*
X62650000Y-37000000D03*
X67650000Y-37000000D03*
D39*
X59650000Y-27000000D03*
X70650000Y-27000000D03*
D18*
X78480000Y-81420000D03*
X78480000Y-82380000D03*
D15*
X81067500Y-43400000D03*
X80107500Y-43400000D03*
D17*
X90170000Y-65920000D03*
X97780000Y-65920000D03*
D32*
X76000000Y-58080000D03*
X76000000Y-57120000D03*
D22*
X58500000Y-44210000D03*
X58500000Y-43190000D03*
D39*
X53300000Y-179600000D03*
D22*
X138880000Y-55267500D03*
X138880000Y-54247500D03*
D14*
X94970000Y-43750000D03*
X95930000Y-43750000D03*
D15*
X57555000Y-42850000D03*
X56595000Y-42850000D03*
X82380000Y-59900000D03*
X81420000Y-59900000D03*
D12*
X71850000Y-57525000D03*
X71850000Y-59075000D03*
D40*
X83015000Y-69357500D03*
D41*
X83265000Y-69357500D03*
D40*
X83015000Y-68857500D03*
D41*
X83265000Y-68857500D03*
D40*
X83015000Y-68357500D03*
D41*
X83265000Y-68357500D03*
D40*
X83015000Y-67857500D03*
D41*
X83265000Y-67857500D03*
D40*
X83015000Y-67357500D03*
D41*
X83265000Y-67357500D03*
D42*
X82715000Y-65607500D03*
D40*
X83015000Y-64357500D03*
X83015000Y-64857500D03*
X83015000Y-65357500D03*
X83015000Y-65857500D03*
X83015000Y-66357500D03*
X83015000Y-66857500D03*
D41*
X83265000Y-64357500D03*
X83265000Y-64857500D03*
X83265000Y-65357500D03*
X83265000Y-65857500D03*
X83265000Y-66357500D03*
X83265000Y-66857500D03*
X77865000Y-64357500D03*
X77865000Y-64857500D03*
X77865000Y-65357500D03*
X77865000Y-65857500D03*
X77865000Y-66357500D03*
X77865000Y-66857500D03*
D43*
X78115000Y-64357500D03*
X78115000Y-64857500D03*
X78115000Y-65357500D03*
X78115000Y-65857500D03*
X78115000Y-66357500D03*
X78115000Y-66857500D03*
D42*
X78415000Y-65607500D03*
D41*
X77865000Y-67357500D03*
D43*
X78115000Y-67357500D03*
D41*
X77865000Y-67857500D03*
D43*
X78115000Y-67857500D03*
D41*
X77865000Y-68357500D03*
D43*
X78115000Y-68357500D03*
D41*
X77865000Y-68857500D03*
D43*
X78115000Y-68857500D03*
D41*
X77865000Y-69357500D03*
D43*
X78115000Y-69357500D03*
D44*
X79440000Y-66857500D03*
D45*
X80565000Y-66857500D03*
D44*
X81690000Y-66857500D03*
D13*
X95800000Y-31590000D03*
X95800000Y-32610000D03*
D15*
X81680000Y-73700000D03*
X80720000Y-73700000D03*
D22*
X84450000Y-37540000D03*
X84450000Y-36520000D03*
D18*
X89550000Y-43270000D03*
X89550000Y-44230000D03*
X78300000Y-60020000D03*
X78300000Y-60980000D03*
D46*
X137176315Y-55662500D03*
X136226315Y-55662500D03*
X135276315Y-55662500D03*
X135276315Y-57937500D03*
X137176315Y-57937500D03*
D11*
X73500000Y-73575000D03*
X73500000Y-72025000D03*
D15*
X82380000Y-81400000D03*
X81420000Y-81400000D03*
D19*
X57500000Y-175500000D03*
D18*
X84300000Y-56970000D03*
X84300000Y-57930000D03*
D19*
X56000000Y-99000000D03*
D47*
X77660000Y-44980000D03*
D48*
X75500000Y-39900000D03*
D49*
X75500000Y-42440000D03*
X75500000Y-44980000D03*
X75500000Y-47520000D03*
D22*
X54000000Y-44735000D03*
X54000000Y-43715000D03*
D21*
X106100000Y-67325000D03*
X106100000Y-70275000D03*
D13*
X93750000Y-33290000D03*
X93750000Y-34310000D03*
D50*
X77925000Y-73700000D03*
X79475000Y-73700000D03*
D51*
X84190000Y-42000000D03*
X85210000Y-42000000D03*
D50*
X77525000Y-63100000D03*
X79075000Y-63100000D03*
D34*
X103700000Y-75575000D03*
X103700000Y-72625000D03*
D18*
X78490000Y-70720000D03*
X78490000Y-71680000D03*
D34*
X101500000Y-54350000D03*
X101500000Y-51400000D03*
D19*
X134000000Y-177000000D03*
D14*
X96020000Y-40800000D03*
X96980000Y-40800000D03*
D35*
X87362500Y-79100000D03*
X85537500Y-79100000D03*
D34*
X101400000Y-75575000D03*
X101400000Y-72625000D03*
X108450000Y-54375000D03*
X108450000Y-51425000D03*
D20*
X82887500Y-73300000D03*
X84712500Y-73300000D03*
D32*
X125250000Y-54980000D03*
X125250000Y-54020000D03*
D52*
X95960000Y-42800000D03*
X94940000Y-42800000D03*
D13*
X85490000Y-36520000D03*
X85490000Y-37540000D03*
D34*
X106050000Y-75575000D03*
X106050000Y-72625000D03*
D12*
X73570000Y-77750000D03*
X73570000Y-79300000D03*
D11*
X72000000Y-52475000D03*
X72000000Y-50925000D03*
D16*
X90500000Y-142084000D03*
X90000000Y-142084000D03*
X89500000Y-142084000D03*
X89000000Y-142084000D03*
X88500000Y-142084000D03*
X88000000Y-142084000D03*
X87500000Y-142084000D03*
X87000000Y-142084000D03*
X86500000Y-142084000D03*
X86000000Y-142084000D03*
X85500000Y-142084000D03*
X85000000Y-142084000D03*
X84500000Y-142084000D03*
X84000000Y-142084000D03*
X83500000Y-142084000D03*
X83500000Y-149916000D03*
X84000000Y-149916000D03*
X84500000Y-149916000D03*
X85000000Y-149916000D03*
X85500000Y-149916000D03*
X86000000Y-149916000D03*
X86500000Y-149916000D03*
X87000000Y-149916000D03*
X87500000Y-149916000D03*
X88000000Y-149916000D03*
X88500000Y-149916000D03*
X89000000Y-149916000D03*
X89500000Y-149916000D03*
X90000000Y-149916000D03*
X90500000Y-149916000D03*
D19*
X132500000Y-175500000D03*
D36*
X86275000Y-69850000D03*
X84725000Y-69850000D03*
D21*
X101500000Y-56475000D03*
X101500000Y-59425000D03*
D24*
X133600000Y-28000000D03*
X134302944Y-26302944D03*
X134302944Y-29697056D03*
X136000000Y-25600000D03*
D25*
X136000000Y-28000000D03*
D24*
X136000000Y-30400000D03*
X137697056Y-26302944D03*
X137697056Y-29697056D03*
X138400000Y-28000000D03*
D34*
X103800000Y-64775000D03*
X103800000Y-61825000D03*
D32*
X76300000Y-68080000D03*
X76300000Y-67120000D03*
D36*
X57250000Y-47800000D03*
X55700000Y-47800000D03*
D23*
X62792500Y-59800000D03*
X56292500Y-59800000D03*
D21*
X106100000Y-77700000D03*
X106100000Y-80650000D03*
D53*
X99500000Y-133916000D03*
X100000000Y-133916000D03*
X100500000Y-133916000D03*
X101000000Y-133916000D03*
X101500000Y-133916000D03*
X102000000Y-133916000D03*
X102500000Y-133916000D03*
X103000000Y-133916000D03*
X103500000Y-133916000D03*
X104000000Y-133916000D03*
X104500000Y-133916000D03*
X105000000Y-133916000D03*
X105500000Y-133916000D03*
X106000000Y-133916000D03*
X106500000Y-133916000D03*
X106500000Y-126084000D03*
X106000000Y-126084000D03*
X105500000Y-126084000D03*
X105000000Y-126084000D03*
X104500000Y-126084000D03*
X104000000Y-126084000D03*
X103500000Y-126084000D03*
X103000000Y-126084000D03*
X102500000Y-126084000D03*
X102000000Y-126084000D03*
X101500000Y-126084000D03*
X101000000Y-126084000D03*
X100500000Y-126084000D03*
X100000000Y-126084000D03*
X99500000Y-126084000D03*
D11*
X71500000Y-63075000D03*
X71500000Y-61525000D03*
D15*
X136630000Y-59450000D03*
X135670000Y-59450000D03*
D19*
X134000000Y-99000000D03*
D50*
X78025000Y-52400000D03*
X79575000Y-52400000D03*
D39*
X131100000Y-26400000D03*
D20*
X83337500Y-52000000D03*
X85162500Y-52000000D03*
D34*
X101490000Y-64775000D03*
X101490000Y-61825000D03*
D15*
X82380000Y-70700000D03*
X81420000Y-70700000D03*
D46*
X133676315Y-55696089D03*
X132726315Y-55696089D03*
X131776315Y-55696089D03*
X131776315Y-57971089D03*
X133676315Y-57971089D03*
D54*
X125100001Y-57400000D03*
D55*
X125500000Y-58300000D03*
X125999999Y-58300000D03*
X126500000Y-58300000D03*
X127000000Y-58300000D03*
X127500001Y-58300000D03*
X128000000Y-58300000D03*
D54*
X128399999Y-57400000D03*
X128399999Y-56900000D03*
D55*
X128000000Y-56000000D03*
X127500001Y-56000000D03*
X127000000Y-56000000D03*
X126500000Y-56000000D03*
X125999999Y-56000000D03*
X125500000Y-56000000D03*
D54*
X125100001Y-56900000D03*
D56*
X125999999Y-57150000D03*
D57*
X126750000Y-57150000D03*
D56*
X127500001Y-57150000D03*
D15*
X133680000Y-53400000D03*
X132720000Y-53400000D03*
D22*
X84300000Y-44060000D03*
X84300000Y-43040000D03*
D53*
X99500000Y-149916000D03*
X100000000Y-149916000D03*
X100500000Y-149916000D03*
X101000000Y-149916000D03*
X101500000Y-149916000D03*
X102000000Y-149916000D03*
X102500000Y-149916000D03*
X103000000Y-149916000D03*
X103500000Y-149916000D03*
X104000000Y-149916000D03*
X104500000Y-149916000D03*
X105000000Y-149916000D03*
X105500000Y-149916000D03*
X106000000Y-149916000D03*
X106500000Y-149916000D03*
X106500000Y-142084000D03*
X106000000Y-142084000D03*
X105500000Y-142084000D03*
X105000000Y-142084000D03*
X104500000Y-142084000D03*
X104000000Y-142084000D03*
X103500000Y-142084000D03*
X103000000Y-142084000D03*
X102500000Y-142084000D03*
X102000000Y-142084000D03*
X101500000Y-142084000D03*
X101000000Y-142084000D03*
X100500000Y-142084000D03*
X100000000Y-142084000D03*
X99500000Y-142084000D03*
D18*
X84300000Y-67620000D03*
X84300000Y-68580000D03*
D47*
X77660000Y-33180000D03*
D48*
X75500000Y-28100000D03*
D49*
X75500000Y-30640000D03*
X75500000Y-33180000D03*
X75500000Y-35720000D03*
D50*
X52900000Y-42525000D03*
X54450000Y-42525000D03*
D15*
X81980000Y-52000000D03*
X81020000Y-52000000D03*
D24*
X52600000Y-78000000D03*
X53302944Y-76302944D03*
X53302944Y-79697056D03*
X55000000Y-75600000D03*
D25*
X55000000Y-78000000D03*
D24*
X55000000Y-80400000D03*
X56697056Y-76302944D03*
X56697056Y-79697056D03*
X57400000Y-78000000D03*
D18*
X86100000Y-42920000D03*
X86100000Y-43880000D03*
D17*
X90160000Y-76610000D03*
X97770000Y-76610000D03*
D18*
X92500000Y-43070000D03*
X92500000Y-44030000D03*
D32*
X76300000Y-78980000D03*
X76300000Y-78020000D03*
D35*
X87412500Y-57100000D03*
X85587500Y-57100000D03*
D50*
X52900000Y-41050000D03*
X54450000Y-41050000D03*
D15*
X97080000Y-36800000D03*
X96120000Y-36800000D03*
D58*
X79837500Y-41700000D03*
X80337500Y-41700000D03*
X80837500Y-41700000D03*
X81337500Y-41700000D03*
X81337500Y-38600000D03*
X80837500Y-38600000D03*
X80337500Y-38600000D03*
X79837500Y-38600000D03*
D21*
X101480000Y-77700000D03*
X101480000Y-80650000D03*
D59*
X84500000Y-34600000D03*
X84500000Y-34100000D03*
X84500000Y-33600000D03*
X84500000Y-33100000D03*
X84500000Y-32600000D03*
X80275000Y-32600000D03*
X80275000Y-33100000D03*
X80275000Y-33600000D03*
X80275000Y-34100000D03*
X80275000Y-34600000D03*
D60*
X115900000Y-28530000D03*
X112600000Y-28530000D03*
D40*
X83025000Y-58637500D03*
D41*
X83275000Y-58637500D03*
D40*
X83025000Y-58137500D03*
D41*
X83275000Y-58137500D03*
D40*
X83025000Y-57637500D03*
D41*
X83275000Y-57637500D03*
D40*
X83025000Y-57137500D03*
D41*
X83275000Y-57137500D03*
D40*
X83025000Y-56637500D03*
D41*
X83275000Y-56637500D03*
D42*
X82725000Y-54887500D03*
D40*
X83025000Y-53637500D03*
X83025000Y-54137500D03*
X83025000Y-54637500D03*
X83025000Y-55137500D03*
X83025000Y-55637500D03*
X83025000Y-56137500D03*
D41*
X83275000Y-53637500D03*
X83275000Y-54137500D03*
X83275000Y-54637500D03*
X83275000Y-55137500D03*
X83275000Y-55637500D03*
X83275000Y-56137500D03*
X77875000Y-53637500D03*
X77875000Y-54137500D03*
X77875000Y-54637500D03*
X77875000Y-55137500D03*
X77875000Y-55637500D03*
X77875000Y-56137500D03*
D43*
X78125000Y-53637500D03*
X78125000Y-54137500D03*
X78125000Y-54637500D03*
X78125000Y-55137500D03*
X78125000Y-55637500D03*
X78125000Y-56137500D03*
D42*
X78425000Y-54887500D03*
D41*
X77875000Y-56637500D03*
D43*
X78125000Y-56637500D03*
D41*
X77875000Y-57137500D03*
D43*
X78125000Y-57137500D03*
D41*
X77875000Y-57637500D03*
D43*
X78125000Y-57637500D03*
D41*
X77875000Y-58137500D03*
D43*
X78125000Y-58137500D03*
D41*
X77875000Y-58637500D03*
D43*
X78125000Y-58637500D03*
D44*
X79450000Y-56137500D03*
D45*
X80575000Y-56137500D03*
D44*
X81700000Y-56137500D03*
D18*
X84250000Y-78320000D03*
X84250000Y-79280000D03*
D11*
X74970000Y-73575000D03*
X74970000Y-72025000D03*
D40*
X83005000Y-80047500D03*
D41*
X83255000Y-80047500D03*
D40*
X83005000Y-79547500D03*
D41*
X83255000Y-79547500D03*
D40*
X83005000Y-79047500D03*
D41*
X83255000Y-79047500D03*
D40*
X83005000Y-78547500D03*
D41*
X83255000Y-78547500D03*
D40*
X83005000Y-78047500D03*
D41*
X83255000Y-78047500D03*
D42*
X82705000Y-76297500D03*
D40*
X83005000Y-75047500D03*
X83005000Y-75547500D03*
X83005000Y-76047500D03*
X83005000Y-76547500D03*
X83005000Y-77047500D03*
X83005000Y-77547500D03*
D41*
X83255000Y-75047500D03*
X83255000Y-75547500D03*
X83255000Y-76047500D03*
X83255000Y-76547500D03*
X83255000Y-77047500D03*
X83255000Y-77547500D03*
X77855000Y-75047500D03*
X77855000Y-75547500D03*
X77855000Y-76047500D03*
X77855000Y-76547500D03*
X77855000Y-77047500D03*
X77855000Y-77547500D03*
D43*
X78105000Y-75047500D03*
X78105000Y-75547500D03*
X78105000Y-76047500D03*
X78105000Y-76547500D03*
X78105000Y-77047500D03*
X78105000Y-77547500D03*
D42*
X78405000Y-76297500D03*
D41*
X77855000Y-78047500D03*
D43*
X78105000Y-78047500D03*
D41*
X77855000Y-78547500D03*
D43*
X78105000Y-78547500D03*
D41*
X77855000Y-79047500D03*
D43*
X78105000Y-79047500D03*
D41*
X77855000Y-79547500D03*
D43*
X78105000Y-79547500D03*
D41*
X77855000Y-80047500D03*
D43*
X78105000Y-80047500D03*
D44*
X79430000Y-77547500D03*
D45*
X80555000Y-77547500D03*
D44*
X81680000Y-77547500D03*
D19*
X56000000Y-177000000D03*
D24*
X133600000Y-185000000D03*
X134302944Y-183302944D03*
X134302944Y-186697056D03*
X136000000Y-182600000D03*
D25*
X136000000Y-185000000D03*
D24*
X136000000Y-187400000D03*
X137697056Y-183302944D03*
X137697056Y-186697056D03*
X138400000Y-185000000D03*
D34*
X103800000Y-54375000D03*
X103800000Y-51425000D03*
D11*
X75000000Y-52475000D03*
X75000000Y-50925000D03*
D19*
X57500000Y-100500000D03*
D12*
X75100000Y-68300000D03*
X75100000Y-69850000D03*
D11*
X74500000Y-63075000D03*
X74500000Y-61525000D03*
D51*
X101480000Y-37500000D03*
X102500000Y-37500000D03*
D12*
X72070000Y-68310000D03*
X72070000Y-69860000D03*
D11*
X73500000Y-52475000D03*
X73500000Y-50925000D03*
D51*
X101480000Y-38500000D03*
X102500000Y-38500000D03*
D11*
X76000000Y-63075000D03*
X76000000Y-61525000D03*
D36*
X87275000Y-58800000D03*
X85725000Y-58800000D03*
D24*
X52600000Y-185000000D03*
X53302944Y-183302944D03*
X53302944Y-186697056D03*
X55000000Y-182600000D03*
D25*
X55000000Y-185000000D03*
D24*
X55000000Y-187400000D03*
X56697056Y-183302944D03*
X56697056Y-186697056D03*
X57400000Y-185000000D03*
D52*
X130260000Y-56750000D03*
X129240000Y-56750000D03*
D21*
X101490000Y-67350000D03*
X101490000Y-70300000D03*
D34*
X106150000Y-54375000D03*
X106150000Y-51425000D03*
M02*
